<svg width="412" height="477" viewBox="0 0 412 477" fill="none" xmlns="http://www.w3.org/2000/svg">
<ellipse cx="163.341" cy="371.865" rx="161.45" ry="58.8111" transform="rotate(1.12206 163.341 371.865)" fill="black" fill-opacity="0.34"/>
<path fill-rule="evenodd" clip-rule="evenodd" d="M150.543 173.216C148.216 174.522 146.285 175.414 144.466 176.023L141.791 176.919L144.307 178.196C146.016 179.063 147.641 180.169 149.275 181.577L150.536 182.665L151.145 181.115C151.944 179.079 152.333 176.763 152.301 174.231L152.276 172.244L150.543 173.216ZM262.294 179.792C260.117 183.726 257.489 187.598 254.947 191.343C249.337 199.609 243.536 208.156 241.75 218.376C241.542 219.647 241.452 224.121 241.452 224.121L243.115 223.443C248.668 221.179 254.559 219.495 260.256 217.866C262.458 217.237 264.735 216.586 266.967 215.909C267.876 215.665 268.779 215.381 269.654 215.106C271.775 214.438 273.78 213.807 275.887 213.699L276.528 213.667L276.849 213.11C279.752 208.076 277.575 203.278 275.082 198.794C273.585 195.525 271.659 192.455 269.795 189.484C267.864 186.405 265.868 183.222 264.409 179.891L263.451 177.703L262.294 179.792ZM155.146 221.492C158.446 224.955 161.512 228.473 164.258 231.95L166.343 230.99C165.335 225.855 162.206 222.238 156.495 219.605L155.146 221.492ZM265.557 298.85C265.227 298.85 264.917 298.979 264.685 299.211C264.449 299.448 264.32 299.766 264.321 300.107L265.557 300.103V298.85ZM128.219 384.465C126.28 381.133 125.995 375.902 128.901 373.065C127.924 366.94 129.844 360.095 134.097 355.218L134.106 355.232C140.421 345.76 140.885 342.386 136.271 331.798C128.026 331.482 119.534 331.388 111.484 329.458L111.785 327.656C111.487 327.577 109.965 327.176 109.638 327.092C109.682 327.427 109.909 328.958 109.903 329.264C109.527 329.676 108.618 330.059 108.449 329.248C103.385 307.565 98.8526 286.312 93.928 264.662C88.7739 242.81 78.4086 207.861 103.781 195.818L103.257 193.579C101.856 193.579 101.293 192.05 100.651 189.889C97.7879 182.159 103.354 174.58 108.56 169.799C115.675 162.664 122.239 154.741 128.589 147.083C146.702 125.023 171.348 95.5858 202.852 100.587L202.746 101.886C207.674 102.507 212.82 103.812 217.81 102.903C234.847 99.9467 253.382 106.635 263.86 120.367L264.245 117.808C264.281 117.566 264.367 117.343 264.749 117.343C265.248 117.325 265.512 117.734 265.696 118.112C283.781 125.273 291.273 148.581 297.052 164.557C297.79 167.258 297.582 168.057 297.518 168.215L296.468 168.842C307.367 183.368 313.357 200.84 318.495 217.407C320.193 221.824 320.37 224.884 317.534 227.555C336.235 238.813 350.91 256.358 342.613 276.359C331.784 295.822 303.111 308.171 281.574 319.35C273.021 323.992 260.582 326.463 252.712 334.065C252.186 334.843 251.432 335.602 250.974 335.54C247.322 336.081 241.885 313.225 242.712 311.395C238.856 312.776 234.567 312.703 230.534 313.423C230.895 314.218 232.078 315.295 231.193 316.18C231.253 318.864 230.841 321.766 230.251 324.502C235.091 323.725 234.981 326.269 230.325 324.923C230.198 326.108 229.876 329.13 229.752 330.276C231.142 329.664 233.908 329.234 234.877 330.192C234.481 331.468 231.053 330.266 229.733 330.644C228.96 336.383 228.709 342.024 228.167 347.746C232.287 351.679 238.724 352.608 242.401 356.861C245.516 360.098 245.067 365.531 241.412 368.135C243.651 370.765 241.859 375.131 238.59 375.845C234.137 376.886 229.482 375.446 225.091 374.236C217.792 371.828 210.147 368.074 201.723 362.761C198.39 360.681 195.908 357.413 194.728 353.557C186.181 327.166 183.897 309.234 187.931 300.233C190.233 298.491 192.8 299.566 194.925 298.614C195.939 298.161 196.852 297.551 197.588 295.388C186.499 294.297 170.335 296.324 161.446 291.001L161.759 290.335C160.938 289.81 159.134 287.614 158.448 286.908C159.685 301.812 160.679 317.101 161.171 331.953C162.801 334.7 164.186 337.544 165.706 340.716C166.763 341.756 168.613 343.539 167.527 344.719C167.527 344.719 176.654 366.129 179.443 376.952C182.099 377.064 183.175 381.57 183.074 384.564C182.67 390.011 175.692 390.589 169.575 391.123C165.389 391.563 161.086 391.79 156.846 391.79C149.185 391.796 130.031 391.268 128.219 384.465Z" fill="white"/>
<path fill-rule="evenodd" clip-rule="evenodd" d="M236.811 310.331C233.798 311.041 230.76 311.63 227.729 312.263C226.952 312.605 223.041 312.66 223.754 313.938C223.751 313.942 223.749 313.946 223.745 313.948C224.541 314.561 225.619 314.214 226.578 314.294C219.125 317.349 214.014 311.054 215.385 303.868C215.58 302.585 215.832 301.125 216.385 299.952C216.678 299.426 218.779 295.376 219.15 296.758C218.859 296.932 219.682 297.004 219.567 296.378C245.161 296.094 238.859 284.314 241.287 309.327C239.782 309.441 238.279 309.984 236.811 310.331M230.591 321.251C230.45 321.877 230.294 322.517 230.112 323.136C225.106 324.007 221.423 326.549 229.351 326.07C229.123 327.007 228.908 327.948 228.705 328.892C227.725 329.269 224.16 330.466 224.343 331.608C225.578 331.885 226.927 331.373 228.196 331.427C227.371 336.894 226.167 342.488 226.277 348.03C226.262 349.855 229.047 350.2 229.404 348.39C232.775 353.347 242.946 355.282 241.981 362.526C241.443 364.006 240.739 365.014 239.225 365.068C238.151 365.346 236.953 366.616 237.57 367.749L237.543 367.759C237.66 368.784 238.83 369.154 239.597 369.449C240.361 370.044 240.388 371.002 239.782 371.897C236.818 375.023 228.364 371.909 224.689 370.88C217.231 368.288 210.182 364.534 203.456 360.427C200.304 358.609 198.137 355.565 197.11 352.104C192.487 335.631 186.489 318.151 189.209 300.92C190.387 299.242 192.938 299.547 194.599 298.659C191.853 308.801 196.404 319.333 198.257 329.333C202.079 347.338 205.092 361.699 224.91 367.707C227.584 368.268 233.35 370.297 235.333 368.048C235.965 367.444 235.902 366.432 235.333 365.816C234.33 364.474 232.671 364.634 231.173 364.482C227.294 363.997 223.499 362.818 220.039 360.995C212.348 357.192 207.002 349.859 205.643 341.404C203.335 331.885 201.263 322.289 198.566 312.869C196.721 306.462 193.708 300.885 200.381 296.166C204.897 296.299 209.417 296.423 213.935 296.439C212.822 298.31 211.592 300.668 212.219 302.886C209.464 309.138 213.021 317.47 219.884 319.064C223.682 319.882 227.625 318.908 231.13 317.301C231.075 318.622 230.907 319.899 230.591 321.251M160.212 290.63C160.192 290.374 160.172 290.116 160.153 289.858C160.501 290.242 160.9 290.586 161.329 290.897C160.96 290.803 160.589 290.706 160.212 290.63M160.875 332.848C161.236 334.152 161.64 335.445 162.079 336.727C155.562 334.842 146.872 333.277 141.454 338.393C140.681 336.307 139.759 334.329 138.465 332.543C145.061 331.793 151.706 332.207 158.299 331.535C158.786 332.457 159.9 333.005 160.875 332.848M140.715 347.9C140.738 347.834 140.764 347.767 140.787 347.702C141.159 347.655 141.528 347.611 141.897 347.562C141.502 347.67 141.108 347.782 140.715 347.9M163.677 341.272C163.923 342.115 164.573 342.633 165.23 342.689C165.879 343.399 166.136 344.471 167.003 344.956C170.287 355.826 174.703 366.386 176.928 377.565C161.709 382.495 147.443 382.778 132.127 377.807C132.495 377.445 132.668 376.959 132.676 376.42C132.686 376.43 132.698 376.437 132.709 376.447C130.638 366.271 131.806 363.069 137.096 354.369C144.203 354.063 151.331 353.8 158.445 354.013C160.115 354.209 163.357 352.834 161.896 350.836C160.182 348.955 157.488 349.465 155.186 349.587C149.814 349.857 144.454 350.649 139.335 352.338C139.873 351.194 140.04 349.834 140.473 348.621C145.435 348.057 150.447 347.925 155.424 348.339C157.28 348.514 159.466 349.406 161.072 348.111C163.94 343.119 143.634 345.855 141.299 346.413C142.068 344.607 142.888 342.733 142.537 340.707C147.654 336.676 158.381 338.069 163.677 341.272M178.733 381.103C179.142 381.391 179.666 381.377 180.108 381.18C181.133 383.66 180.422 386.198 177.585 386.781C172.416 387.993 167.029 388.219 161.743 388.531C156.117 388.751 150.471 388.587 144.867 388.054C135.874 387.785 127.883 385.253 128.25 374.694C128.61 376.104 128.845 378.265 130.655 378.354C144.779 385.816 163.116 386.526 177.69 380.041C177.942 380.442 178.274 380.783 178.733 381.103M111.318 328.373C111.316 328.343 111.316 328.318 111.311 328.288C111.463 328.328 111.616 328.373 111.77 328.41C111.619 328.396 111.469 328.383 111.318 328.373M151.384 173.853C151.412 176.035 151.112 178.248 150.31 180.29C148.714 178.914 146.99 177.706 145.105 176.75C147.295 176.016 149.371 174.983 151.384 173.853M105.933 193.772C106.228 193.251 104.916 193.887 104.711 193.914C105.567 193.226 105.392 191.765 104.401 191.373C99.697 183.169 105.403 175.719 111.434 170.267C121.727 160.083 130.104 148.22 139.674 137.383C151.746 139.398 163.408 144.571 172.414 152.904C163.19 161.417 153.569 170.365 141.961 175.453C140.881 174.93 139.446 175.073 139.087 176.244C137.755 176.486 136.427 176.826 135.099 177.043C135.031 177.053 135.041 177.151 135.099 177.167C136.405 177.617 137.751 177.917 139.146 177.828C152.571 182.507 157.593 196.961 167.144 206.401C174.942 213.228 186.127 218.266 187.253 229.88C189.131 233.635 190.487 237.553 189.989 241.758C190.119 245.042 188.974 248.3 189.91 251.486C187.941 259.018 185.683 266.855 180.043 272.534C179.884 272.495 179.719 272.505 179.565 272.58C179.97 270.063 180.405 267.55 180.834 265.037C182.46 261.713 183.499 258.137 184.18 254.508C184.457 252.68 181.772 252.314 181.659 254.176C179.828 260.704 177.609 268.44 171.243 272.237C172.401 267.851 173.799 263.514 175.728 259.405C176.466 258.037 177.163 256.646 177.845 255.25C178.581 253.739 176.383 252.411 175.567 253.918C172.593 259.588 169.789 266.009 164.126 269.402C165.914 263.488 168.269 257.694 170.501 251.926C170.749 251.334 170.234 250.634 169.677 250.474C168.998 250.279 168.471 250.714 168.225 251.299C167.329 253.377 166.649 255.784 165.202 257.584C164.621 259.58 160.561 262.663 162.624 258.088C164.631 252.203 165.993 245.925 168.872 240.436C169.664 230.479 168.16 224.25 158.566 219.641C157.175 218.944 155.45 218.052 153.781 217.753C149.117 213.111 144.137 208.797 138.78 204.883C127.926 196.677 111.426 189.347 98.9811 198.503C100.978 196.529 103.297 194.898 105.933 193.772M153.267 122.899C166.161 110.314 182.958 100.281 201.463 100.278C201.298 100.333 201.268 100.534 201.367 100.663C187.327 159.783 254.734 182.766 266.981 117.899C279.839 126.289 289.589 148.13 294.037 162.563C282.51 163.457 272.139 170.738 265.423 179.849C264.844 178.864 264.719 177.695 266.281 177.981C266.638 177.639 265.005 177.834 264.868 178.113C267.976 171.477 271.173 164.607 272.987 157.365C273.04 157.182 272.783 157.08 272.684 157.237C269.959 161.581 267.094 165.829 264.435 170.214C255.44 187.825 237.486 203.3 238.249 224.332C238.245 224.334 238.243 224.336 238.242 224.338C238.59 224.947 238.45 225.793 238.981 226.326C236.215 238.573 229.319 251.089 218.119 257.396C209.658 261.296 200.449 256.776 193.145 252.355C192.876 249.769 192.604 247.184 192.332 244.6C193.662 244.265 193.493 241.832 193.533 240.762C193.812 236.256 192.647 231.834 190.252 227.973C189.147 222.241 186.049 217.147 181.57 213.426C178.579 210.87 175.256 208.746 172.21 206.263C164.122 199.691 159.789 189.928 152.64 182.496C153.501 179.378 153.683 176.256 152.762 173.05C157.872 169.751 185.718 151.578 180.55 145.22C179.801 144.107 178.178 144.304 177.751 145.585C177.212 147.326 176.412 148.935 175.088 150.212C165.726 141.718 153.269 136.082 140.486 136.45C144.58 131.77 148.808 127.203 153.267 122.899M202.573 101.338C210.56 105.31 220.193 102.562 228.713 102.911C241.817 103.43 254.532 109.877 262.654 120.183C259.474 134.23 251.893 150.206 236.47 153.43C221.184 156.178 207.674 143.074 204.025 129.057C201.578 120.063 201.528 110.554 202.573 101.338M312.572 201.689C313.745 204.857 314.854 208.047 315.933 211.249C317.018 214.511 318.296 217.749 319.185 221.071C318.816 222.66 317.933 223.93 317.05 225.265C310.453 235.194 297.034 234.265 287.279 239.086C285.744 239.814 283.889 240.721 282.545 242C280.735 242.675 280.221 244.826 280.508 246.574C282.096 255.42 283.389 264.174 283.772 273.145C283.897 275.62 283.975 278.206 283.202 280.57C280.386 278.303 278.754 265.236 278.678 261.377C278.642 260.406 277.423 260.343 277.084 261.16C272.941 272.5 275.097 284.959 274.583 296.787C268.715 288.249 268.699 277.479 268.381 267.505C268.311 265.909 265.872 265.891 265.885 267.505C265.533 278.001 267.049 289.417 265.905 299.635C261.531 288.856 260.303 276.756 261.436 265.21C259.347 271.3 259.421 279.652 260.116 286.489C258.064 286.717 259.436 292.573 258.815 294.251C247.247 267.668 259.189 252.086 271.903 229.642C274.561 223.136 281.872 211.472 279.779 204.846C279.032 202.516 277.706 200.428 276.46 198.343C272.92 192.468 269.258 186.668 265.862 180.711C266.464 180.235 267.052 179.743 267.633 179.241C275.407 172.301 282.498 166.889 293.452 166.107C301.97 176.729 307.908 188.954 312.572 201.689M265.86 299.741C265.787 299.954 265.675 299.535 265.893 299.663C265.883 299.688 265.869 299.714 265.86 299.741M276.059 282.298C276.11 277.944 276.056 273.547 276.653 269.234C276.419 273.587 276.256 277.944 276.059 282.298M271.923 212.912C262.246 215.864 252.347 218.213 242.933 221.957C243.425 205.691 256.215 193.548 263.591 179.971C266.499 186.612 271.273 192.326 274.292 198.934C276.608 203.097 278.722 207.564 276.09 212.127C274.713 212.078 273.178 212.591 271.923 212.912M165.34 230.675C162.455 227.071 159.437 223.6 156.264 220.284C161.005 222.469 164.409 225.53 165.448 230.824C165.415 230.775 165.379 230.726 165.34 230.675M217.922 296.419C217.568 296.682 217.427 296.812 217.17 297.012C217.419 296.825 217.637 296.512 217.922 296.419M344.023 253.237C339.502 241.714 329.939 233.21 319.597 226.878C322.194 223.851 321.111 219.966 319.866 216.604C314.68 199.917 308.836 183.046 298.449 168.799C300.631 167.497 296.087 157.462 295.432 155.045C289.863 141.488 281.512 121.952 266.767 116.751C265.995 115.402 263.627 115.332 263.341 117.239C252.254 104.256 234.558 98.5872 217.871 101.347C212.874 102.22 208.087 100.924 203.153 100.321C205.587 100.421 208.008 100.715 210.391 101.238C210.578 101.279 210.649 101.018 210.47 100.955C195.39 95.2902 178.51 99.8451 165.507 108.496C142.254 124.218 127.556 148.928 108.02 168.541C102.454 173.719 97.1336 181.088 99.5483 189.063C100.207 191.115 100.811 194.367 103.521 194.366C76.9877 207.499 87.952 241.882 93.0407 264.531C97.9362 286.051 102.544 307.641 107.565 329.13C107.948 330.728 109.669 330.823 110.646 330.008C118.793 332.102 127.365 332.248 135.738 332.556C140.017 342.753 139.248 345.125 133.379 354.198C133.469 354.182 133.576 354.17 133.705 354.166C133.567 354.174 133.412 354.218 133.298 354.31C133.322 354.276 133.342 354.258 133.379 354.198C132.962 354.271 132.964 354.436 133.066 354.469C133.136 354.408 133.209 354.353 133.288 354.306C133.284 354.318 133.284 354.324 133.296 354.312C133.235 354.46 133.131 354.491 133.066 354.469C129.102 359.41 127.065 365.986 127.922 372.293C125.02 375.553 125.347 381.005 127.445 384.638C130.047 389.699 135.823 391.065 141.047 391.523C147.46 392.366 153.934 392.708 160.401 392.533C163.596 392.447 166.786 392.238 169.966 391.903C175.41 391.313 183.694 391.268 184.514 384.28C184.695 381.679 183.591 376.238 180.669 375.568C177.922 365.025 174.56 354.305 168.362 345.222C170.221 343.629 168.33 340.89 166.936 339.608C165.603 336.828 164.259 334.053 162.703 331.39C163.134 329.787 162.062 328.793 162.274 327.206C162.324 315.131 161.082 303.1 160.245 291.061C168.77 297.046 185.63 295.222 196.093 296.042C194.471 299.678 189.985 296.084 187.202 299.171C181.175 312.183 189.496 340.027 193.863 353.509C195.11 357.585 197.733 361.104 201.357 363.366C208.774 368.044 216.666 372.223 225.012 374.973C229.536 376.228 234.445 377.714 239.133 376.599C242.77 375.716 245.148 371.337 243.181 367.975C246.842 364.68 246.762 359.204 243.564 355.703C239.904 351.397 233.784 350.447 229.662 346.859C230.14 341.686 230.389 336.532 231.043 331.382C232.561 331.307 234.077 331.956 235.5 331.252C238.218 328.63 233.578 327.542 231.382 328.223C231.462 327.471 231.541 326.722 231.622 325.97C236.433 327.045 236.593 322.384 231.978 322.794C232.411 320.596 232.646 318.36 232.639 316.142C233.103 315.443 233.074 314.591 232.692 313.936C235.699 313.478 238.908 313.459 241.821 312.582C241.884 316.371 247.622 343.56 253.834 334.483C257.164 330.957 261.705 328.862 266.151 327.054C271.588 324.811 276.994 322.494 282.332 320.027C298.208 312.679 313.567 304.122 327.744 293.845C342.048 284.636 351.223 270.235 344.023 253.237" fill="black"/>
<path fill-rule="evenodd" clip-rule="evenodd" d="M276.528 72.7129C276.016 68.2183 276.679 58.8238 276.723 58.2531C277.004 54.6449 275.311 40.3965 272.11 41.7094C266.741 37.4653 259.59 36.5281 252.903 36.0804C239.013 35.1504 224.237 37.2854 213.512 46.6191C208.208 51.4662 203.044 58.5161 203.46 65.8566C198.64 72.8146 191.847 82.359 197.851 90.4934C199.892 93.0922 203.136 94.06 205.7 96.0282C210.857 100.182 214.092 106.143 219.299 110.272C233.091 122.647 256.511 125.233 270.063 111.156C280.542 100.961 278.847 85.7097 277.004 72.7129C275.765 63.9751 277.527 81.4813 276.528 72.7129Z" fill="white"/>
<path fill-rule="evenodd" clip-rule="evenodd" d="M234.349 17.0204C238.064 16.2719 241.878 15.8062 245.672 15.9464L245.964 15.9578C248.818 16.0717 252.433 16.3236 254.923 17.9809C255.066 17.8374 255.296 17.7637 255.505 17.8633C258.464 19.2735 261.719 20.2932 264.834 21.3064C267.935 22.3146 271.153 22.9801 274.403 23.2484C275.626 23.3494 276.673 24.668 275.898 25.8506C275.714 26.1324 275.535 26.4171 275.356 26.7024C275.655 26.6713 275.954 26.6392 276.253 26.6091C277.236 26.5102 278.219 27.5583 278.16 28.5145C278.124 29.1159 278.059 29.7102 277.963 30.2974C278.338 30.2895 278.71 30.3456 279.07 30.4974C280.892 31.2657 280.765 33.4325 280.628 35.0811C280.439 37.3689 279.583 39.7921 277.992 41.5044C279.179 42.7364 280.02 44.2078 280.522 45.9552C280.886 47.2312 281.088 48.5904 280.988 49.9187L280.957 50.3164C280.833 51.7578 280.587 53.3537 279.549 54.3907C279.016 54.9253 278.359 55.1202 277.733 55.0584C278.111 58.3803 278.354 61.7212 278.583 65.0502L278.69 66.6414C279.199 74.3354 279.582 82.0796 279.482 89.7863C279.389 96.9885 277.964 103.979 273.54 109.827C269.511 115.152 263.726 119.078 257.182 120.57C253.655 121.375 250.055 121.432 246.485 120.919C244.755 120.67 243.014 120.287 241.371 119.683C239.553 119.013 238.247 118.027 237.024 116.549C236.445 115.848 236.724 114.356 237.876 114.496C239.618 114.707 241.209 114.961 242.879 115.476L243.118 115.551C244.782 116.084 246.505 116.48 248.244 116.649C251.806 116.994 255.423 116.647 258.836 115.568C264.393 113.81 269.178 109.891 272.246 104.968C275.886 99.1318 276.298 92.507 276.246 85.7967C276.189 78.4333 275.949 71.0656 275.558 63.7098L275.491 62.484C275.284 58.6987 275.084 54.9111 274.908 51.1234C274.854 49.9353 274.77 48.7377 274.62 47.552C273.247 46.7489 272.017 45.6416 271.215 44.2753C269.604 44.9406 267.91 45.4206 266.351 45.8032C262.74 46.6899 258.991 46.9052 255.316 46.3499C254.324 46.7589 253.313 47.1184 252.286 47.4278C252.009 47.5506 251.731 47.6713 251.454 47.7896C248.979 48.847 246.469 49.7429 243.856 50.3987L243.214 50.5585C241.839 50.897 240.346 51.2302 238.882 51.3349C238.642 51.4276 238.383 51.506 238.099 51.5749C236.767 51.8981 235.384 52.0002 234.018 51.8862C232.688 51.7745 231.726 50.432 232.459 49.175C232.995 48.2578 233.535 47.3429 234.08 46.4305C232.184 47.2194 230.225 47.8752 228.25 48.4312C226.256 48.992 224.233 49.4649 222.208 49.8997C221.125 50.1302 220.038 50.3345 218.957 50.565C218.184 50.729 216.996 50.8145 216.366 51.323C215.669 51.8814 215.471 53.1836 215.207 53.9867C214.859 55.0299 214.533 56.0778 214.236 57.1375C213.644 59.2523 213.158 61.398 212.782 63.5651C212.406 65.7346 212.154 67.9254 212.013 70.1234C211.873 72.319 211.935 74.5288 211.709 76.7149C211.587 77.8745 210.341 78.4709 209.42 77.6606C209.312 77.5656 209.203 77.4695 209.095 77.3723L208.934 77.2258C208.146 76.5129 207.382 75.7573 206.752 74.9066C206.638 74.7498 206.528 74.5859 206.426 74.4195C206.409 74.4195 206.395 74.4148 206.378 74.4029L206.204 74.2716C204.279 72.8411 201.064 70.9763 199.187 73.3526C198.589 74.1097 198.283 75.0736 198.029 76.0036L197.583 77.668C197.294 78.7545 197.023 79.847 196.864 80.9588C196.505 83.449 196.686 86.3195 198.402 88.3154C199.087 89.1138 200.032 89.6841 201.086 89.8338C201.674 89.9146 202.254 89.8148 202.837 89.7412C203.43 89.6675 204.001 89.7863 204.594 89.7293C205.536 89.6366 205.948 90.7629 205.595 91.471C205.405 91.8512 205.181 92.1791 204.927 92.4571C205.131 92.633 205.327 92.8231 205.515 93.0227C206.071 93.2009 206.571 93.5835 206.945 94.0896C207.247 94.4983 207.404 94.9426 207.43 95.4107C207.463 95.5272 207.492 95.646 207.518 95.7672L208.029 96.5945C208.141 96.776 208.253 96.9553 208.365 97.1311C209.664 99.1746 211.107 100.904 212.899 102.535C214.624 104.103 216.497 105.507 218.117 107.189L218.308 107.389C219.819 108.979 221.412 110.904 220.821 113.215C220.668 113.81 219.838 114.237 219.295 113.836C217.551 112.543 216.673 110.495 215.193 108.926C213.669 107.311 211.982 105.859 210.455 104.248C209.01 102.727 207.87 101.004 207.011 99.1081C206.668 99.4859 206.169 99.7544 205.476 99.859C204.287 100.037 203.177 99.3409 202.659 98.3121C202.326 98.4594 201.985 98.5924 201.643 98.697C199.839 99.2483 198.704 97.2451 199.384 95.7648C199.748 94.9711 200.203 94.282 200.767 93.7023C199.003 93.4599 197.209 92.5498 196.05 91.414C193.143 88.5602 192.743 84.2712 193.397 80.4574C193.745 78.4353 194.344 76.3894 195.122 74.4908C195.258 74.1605 195.403 73.8279 195.562 73.4999C195.474 73.4976 195.384 73.4596 195.327 73.3859C194.801 72.6683 194.161 72.0814 193.771 71.2782C193.411 70.5416 193.012 69.7955 192.728 69.028C192.145 67.4573 191.86 65.6847 191.67 64.0237C191.277 60.6234 191.429 57.2445 191.95 53.8655C192.838 48.1104 194.981 42.6029 198.139 37.7702C197.967 37.68 197.803 37.5711 197.649 37.4423L197.573 37.3763L197.45 37.2651C196.549 36.4507 196.627 34.9245 197.45 34.0997L197.71 33.8394C198.039 33.5128 198.323 33.254 198.855 32.8983C198.934 32.8458 199.014 32.7964 199.095 32.7503C198.817 32.2366 198.72 31.6359 198.914 30.9732C199.59 28.6645 202.917 28.7462 205.025 29.753C207.358 27.6741 209.945 25.8693 212.749 24.408C219.426 20.9293 226.977 18.5032 234.349 17.0204ZM199.832 77.827C201.079 77.4206 202.735 78.2737 203.856 78.787C205.277 79.438 206.486 80.4004 207.656 81.4174C208.239 81.9259 208.344 82.7576 208.199 83.468C208.184 83.5393 208.17 83.613 208.153 83.6866C207.999 84.4446 207.152 85.0411 206.402 85.0197C204.834 84.9769 204.087 83.6249 203.199 82.4795C203.094 82.6649 202.964 82.836 202.802 82.9643L202.692 83.0498C202.324 83.3299 201.918 83.5538 201.431 83.5322C201.086 83.5156 200.755 83.4276 200.45 83.2684C199.689 82.8669 199.354 81.8831 199.56 81.0823C199.689 80.5786 199.984 80.1842 200.369 79.9109L200.226 79.8127C199.918 79.5991 199.638 79.3738 199.419 79.0414L199.37 78.9628H199.389C199.151 78.5541 199.306 77.9981 199.832 77.827Z" fill="black"/>
<path fill-rule="evenodd" clip-rule="evenodd" d="M259.983 108.374C257.947 108.964 255.761 109.017 253.686 108.408C251.804 107.855 249.871 106.639 248.486 105.03C247.255 103.6 246.458 101.863 246.489 100.008C246.493 99.7966 246.569 99.6198 246.685 99.4826C246.811 99.3349 246.986 99.2335 247.173 99.1895C247.366 99.1442 247.57 99.1602 247.744 99.2391C247.901 99.3106 248.036 99.4319 248.12 99.6092C248.333 99.889 248.545 100.165 248.758 100.433C250.469 102.547 252.127 104.128 254.701 104.694C256.098 105.002 257.493 104.866 258.773 104.396C260.143 103.894 261.381 103.011 262.352 101.88C262.79 101.369 263.308 101.161 263.814 101.157C264.388 101.154 264.955 101.42 265.382 101.847C265.802 102.266 266.084 102.835 266.109 103.431C266.131 103.953 265.961 104.499 265.507 104.987C264.014 106.591 262.078 107.767 259.983 108.374ZM259.92 81.8897C262.007 83.1588 265.187 86.1179 262.942 89.2641C260.299 92.0381 256.494 88.8575 254.619 87.419C252.88 86.3042 250.927 89.1714 252.54 90.4732C266.089 100.508 271.587 82.2215 260.975 80.3976C259.807 80.1966 259.373 81.4971 259.92 81.8897ZM240.397 76.3056C239.726 75.8765 238.937 75.7292 238.063 76.1272C237.379 76.4381 236.181 77.4745 235.347 78.8369C234.776 79.769 234.371 80.8624 234.456 82.0013C234.475 82.2659 234.378 82.4609 234.223 82.6051C234.102 82.719 233.926 82.8027 233.719 82.8288C233.544 82.8511 233.348 82.831 233.188 82.7812C232.885 82.6864 232.724 82.4895 232.664 82.3287C232.08 80.7771 232.331 79.0455 232.986 77.4834C233.869 75.3752 235.473 73.6093 236.524 73.04C238.323 72.0654 240.445 72.0205 242.246 73.0134C243.779 73.8585 244.738 75.2228 245.691 76.6135C245.894 76.9091 246.095 77.2025 246.303 77.4908C246.72 78.0685 246.761 78.6415 246.6 79.1328C246.421 79.677 245.965 80.1364 245.395 80.3768C244.868 80.5989 244.257 80.6302 243.716 80.4019C243.259 80.2091 242.839 79.8332 242.574 79.1953C242.127 78.1211 241.382 76.9359 240.397 76.3056V76.3056ZM274.464 78.6956C274.005 78.9351 273.646 79.0073 273.136 78.8545C272.854 78.7698 272.576 78.6076 272.358 78.3894C272.141 78.1732 271.986 77.9044 271.925 77.6061C271.776 76.87 271.373 76.181 270.8 75.7319C270.309 75.3479 269.69 75.1445 269.004 75.2593C268.263 75.383 267.557 75.8583 267.071 76.4186C266.909 76.6061 266.781 76.8191 266.653 77.0306C266.414 77.4261 266.181 77.7938 265.851 78.0843C265.725 78.1948 265.537 78.2714 265.354 78.2714C265.28 78.2714 265.204 78.2593 265.133 78.2369C264.395 77.4966 264.253 76.935 264.277 76.3779C264.302 75.7938 264.532 75.2023 264.904 74.6505C265.777 73.356 267.434 72.2947 268.552 72.0543C270.083 71.7251 271.604 72.1203 272.823 72.9758C274.078 73.8562 275.007 75.2229 275.297 76.7632C275.367 77.1342 275.337 77.5346 275.196 77.8818C275.058 78.221 274.818 78.5116 274.464 78.6956ZM243.774 62.5045C242.855 63.4002 241.768 63.5389 240.667 63.6623C240.056 63.7315 239.568 63.7873 239.088 63.8957C237.768 64.1938 236.463 64.6428 235.272 65.2893C234.028 65.9653 232.672 66.7804 231.696 67.8247C231.464 68.0732 231.246 68.334 231.027 68.5953C230.827 68.8336 230.635 69.063 230.432 69.2842C230.199 69.5383 229.978 69.8046 229.758 70.0701C229.622 70.2942 229.595 70.3494 229.568 70.4067C229.526 70.493 229.479 70.5894 229.424 70.693C229.349 70.8347 229.261 70.9899 229.169 71.1306C229.016 71.3878 228.934 71.4586 228.863 71.4903C228.745 71.5428 228.633 71.5686 228.525 71.5546C228.424 71.5415 228.328 71.4927 228.233 71.4128C227.762 71.014 227.622 70.3596 227.637 69.6649C227.658 68.6108 228.047 67.4437 228.405 66.7262C229.238 65.0591 230.394 63.3261 231.783 62.0818C233.368 60.6616 235.103 59.5864 237.095 58.8455C238.333 58.3849 239.766 57.9621 241.115 58.0155C242.086 58.054 243.012 58.3426 243.778 59.0636C244.248 59.5061 244.473 60.1356 244.473 60.7647C244.473 61.4063 244.239 62.0516 243.774 62.5045ZM276.333 70.7063C276.275 70.8021 276.194 70.8681 276.104 70.9078C276.01 70.9493 275.904 70.9613 275.803 70.9443C275.702 70.9273 275.607 70.8817 275.531 70.8119C275.458 70.7451 275.403 70.6564 275.378 70.5478C274.768 67.8672 273.583 65.8728 271.055 64.5867C269.811 63.954 268.381 63.552 267.027 63.2315C266.633 63.1384 266.218 63.078 265.799 63.0169C264.487 62.8252 263.165 62.6057 262.31 61.5446C261.794 60.9055 261.578 60.0881 261.7 59.3406C261.815 58.6367 262.227 57.9913 262.974 57.6046C264.835 56.6421 267.147 57.5865 269.026 58.391C269.165 58.4507 269.302 58.5093 269.436 58.5658C271.273 59.3417 272.949 60.3659 274.327 61.8306C275.42 62.9926 276.433 64.7104 276.841 66.4776C277.18 67.9478 277.1 69.4487 276.333 70.7063Z" fill="black"/>
</svg>
