<svg width="806" height="1609" viewBox="0 0 806 1609" fill="none" xmlns="http://www.w3.org/2000/svg">
<path fill-rule="evenodd" clip-rule="evenodd" d="M593.958 1546.98C597.406 1530.93 581.636 1525.5 571.694 1521.93C564.573 1517.31 538.187 1501.32 517.771 1481.57C501.064 1465.41 489.691 1444.69 484.957 1442.72C484.957 1442.72 480.084 1439.89 479.578 1437.79C476.613 1425.49 479.086 1414.02 479.578 1406.56C489.082 1404.06 496.698 1400.95 502.394 1396.6C504.055 1397.15 506.545 1397.86 507.288 1395.43C512.435 1361.08 514.657 1327.14 518.846 1292.77C534.699 1161.85 536.487 1008.9 509.213 889.329C508.927 883.402 509.444 878.049 509.972 872.956C513.66 872.558 515.89 868.988 518.901 866.854C523.575 863.139 529.109 860.284 528.881 853.792C529.991 852.951 529.862 852.478 529.315 851.407C532.88 836.075 516.978 819.919 512.48 807.279C520.656 727.314 509.532 651.748 515.738 571.764C523.576 568.484 518.306 547.983 517.771 539.528C513.429 485.052 485.113 431.192 434.122 413.396C431.207 412.805 426.825 409.473 424.413 411.711C419.752 409.864 413.55 413.505 409.942 409.313L409.978 409.286C406.94 405.073 405.579 399.718 404.58 394.654C404.747 396.081 405.026 397.496 405.37 398.879C396.579 374.103 394.364 367.478 366.065 366.312C353.318 366.141 336.514 366.524 329.081 378.683C326.035 384.335 326.966 390.825 325.075 396.774C321.605 407.692 306.627 402.416 298.764 408.086C235.828 428.273 184.205 469.478 167.237 535.614C163.768 543.586 159.834 551.519 156.933 559.746C156.485 560.967 155.25 565.099 158.215 567.001L159.649 567.921C140.759 656.219 139.506 730.623 202.97 789.488C207.733 814.782 195.481 849.325 200.19 873.883C197.507 877.691 200.91 880.758 204.341 881.003C204.671 881.186 206.008 881.771 206.372 881.939C200.913 959.02 223.835 1062.9 233.94 1103.91C235.315 1128.52 226.913 1148.75 209.63 1162.16C190.535 1173.92 152.782 1227.05 159.781 1282.77C151.602 1284.37 143.482 1285.25 135.635 1288.33C101.301 1282.27 101.642 1348.46 99.4542 1371.74C95.749 1410.71 93.4462 1467.19 130.465 1492.13C140.217 1499.21 159.991 1507.49 170.124 1496.17C173.445 1492.18 174.276 1488.32 172.97 1484.25C189.703 1460.61 185.193 1429.68 186.731 1401.96C191.583 1401.66 196.659 1403.94 201.353 1403.11C206.17 1398.86 188.596 1400.02 186.773 1399.77C186.96 1395.5 187.304 1390.99 187.748 1386.68C190.504 1387.23 194.035 1388.56 196.686 1388.66C198.255 1389.04 199.364 1386.88 198.417 1385.76C196.348 1383.79 191.074 1384.09 188.105 1383.81C188.607 1380.2 189.22 1376.41 189.901 1372.92C193.532 1372.79 197.282 1375.1 200.72 1374.63C198.117 1372.89 193.233 1373.42 190.061 1372.27C192.124 1361.03 196.327 1350.36 200.234 1339.85C209.822 1343.8 218.093 1343.96 227.453 1342.77C231.281 1343.36 233.148 1342.58 233.768 1337.79L233.524 1337.49C240.942 1293.09 264.881 1250.77 309.347 1202.77C318.131 1192.94 328.056 1181.37 334.669 1168.43C347.957 1141.5 350.227 1111.78 360.466 1083.81C370.025 1055.7 383.096 1028.81 395.368 1002.16C397.168 1015.82 399.586 1029.83 402.099 1043.22C413.159 1090.68 412.087 1141.31 403.947 1189.03C391.904 1255.87 397.709 1323.03 395.03 1390.34C395.067 1394.22 395.548 1397.74 394.979 1401.79C394.903 1402.1 395.05 1402.47 395.419 1402.46L396.114 1402.48C401.903 1406.71 409.897 1407.48 416.699 1409.78C419.555 1412.04 418.751 1415.62 419.012 1418.42C419.76 1430.46 420.715 1442.54 419.529 1454.95C414.281 1465.01 407.763 1462.93 406.429 1477.11C405.262 1493.29 403.198 1510.51 411.079 1524.92L408.097 1525.43C403.672 1534.72 406.374 1540.75 416.775 1544.68C468.122 1564.81 540.376 1583.09 593.958 1567.89C594.932 1568.86 596.349 1567.86 597.456 1566.34C598.52 1564.88 599.299 1562.95 599.126 1561.82C598.21 1556.89 599.47 1547.89 593.958 1546.98Z" fill="white"/>
<path fill-rule="evenodd" clip-rule="evenodd" d="M596.406 1563.11C550.265 1583.83 466.48 1557.68 421.143 1542.55C408.919 1538.14 404.847 1537.28 408.272 1523.19C414.68 1535.55 428.463 1538.54 441.668 1541.02C486.397 1551.22 531.999 1570.05 579.835 1560.86C586.856 1559.75 593.803 1555.95 595.847 1548.94C597.106 1551.91 596.327 1555.94 596.831 1559.21C596.925 1560.51 596.954 1561.92 596.406 1563.11M409.79 1486.03C410.623 1477.73 411.956 1468.95 416.684 1461.61C416.17 1473.48 423.299 1493.66 438.919 1486.94C443.344 1484.59 445.823 1479.87 448.67 1476.08C458.131 1463.6 470.263 1452.77 483.967 1444.9C491.591 1446.21 494.869 1460.15 499.783 1465.99C494.305 1468.43 484.379 1473.99 483.375 1479.75C490.215 1477.45 496.51 1473.16 503.684 1471.65C505.981 1474.83 508.417 1477.9 510.975 1480.87C507.632 1482.34 494.158 1489.16 494.247 1492.56C501.532 1491.37 508.593 1487.8 515.918 1486.34C519.176 1489.57 522.141 1493.05 525.384 1496.29C520.484 1498.31 515.31 1500.56 512.635 1505.27C512.508 1505.48 512.821 1505.72 512.993 1505.51C516.663 1501.09 522.979 1500.27 528.452 1499.28C536.849 1507.19 546.252 1514.16 556.776 1519.38C567.306 1525.14 583.309 1526.46 587.498 1538.95C590.849 1551.43 580.398 1552.77 570.755 1553.65C561 1555.04 551.176 1555.25 541.484 1554.44C511.19 1553.18 482.551 1544.26 453.922 1536.46C418.919 1530.02 407.561 1524.8 409.79 1486.03M420.055 1413.01C419.972 1413.56 419.899 1414.11 419.821 1414.66C419.722 1414.08 419.654 1413.49 419.511 1412.92C419.693 1412.95 419.874 1412.98 420.055 1413.01M476.608 1440.9C463.197 1450.82 450.105 1461.87 440.791 1475.7C434.627 1486.96 426.425 1480.11 424.387 1471.09C422.735 1450.96 424.156 1433.57 422.221 1413.32C440.767 1415.85 459.816 1414.29 477.931 1409.82C475.751 1418.86 474.751 1422.29 474.682 1431.57C474.8 1434.62 474.756 1438.35 476.608 1440.9M506.629 699.907C507.025 729.538 507.211 759.178 506.182 788.798C480.101 721.384 488.083 648.232 484.379 577.373C492.086 574.805 500.366 573.683 508.309 572.586C505.119 616.568 505.942 655.856 506.629 699.907M359.231 849.602C295.191 818.982 286.333 740.474 235.626 697.222C233.989 695.664 232.633 694.062 231.843 692.175C235.479 655.44 235.214 623.232 239.512 586.536C244.313 577.824 246.21 567.705 249.786 558.434C251.658 552.79 253.931 547.199 254.47 541.275C254.921 539.324 251.873 538.477 251.305 540.319C244.538 553.471 241.172 568.097 236.121 581.964C235.41 582.248 234.465 582.023 234.185 581.278C234.142 581.46 234.092 581.641 234.048 581.822C212.308 573.326 189.892 565.412 166.207 565.471C166.222 565.397 166.242 565.319 166.256 565.245C164.796 565.29 161.734 565.172 162.65 563.055C183.469 487.13 220.849 435.087 300.141 410.366C290.003 469.279 437.552 472.689 435.514 417.853C491.096 441.736 515.041 508.812 508.74 565.29C503.458 563.864 489.705 569.474 484.339 572.733C483.247 549.801 485.962 522.125 484.364 501.619C475.907 606.175 460.125 731.282 512.283 826.151C515.668 832.511 521.19 838.597 521.053 846.064C521.459 846.476 521.499 847.196 521.004 847.726C521.004 847.76 521.004 847.794 520.999 847.828C520.974 847.833 520.945 847.833 520.916 847.833C519.402 849.637 516.217 849.994 514.027 850.391C508.853 851.435 503.409 852.229 498.671 854.63C448.19 881.134 408.595 846.966 359.231 849.602M375.184 897.779C377.624 902.439 381.721 906.187 386.576 908.53C385.978 909.706 385.772 911.029 385.708 912.268C376.963 914.057 379.422 918.207 373.514 920.187C369.647 921.255 365.928 921.711 362.587 924.053C351.215 934.647 348.392 933.868 336.187 924.548C336.354 923.705 319.744 907.481 314.6 898.411C310.312 890.846 305.824 883.226 299.253 877.375C267.077 844.428 232.799 813.332 201.651 779.473C139.23 717.268 151.14 646.732 165.477 569.033C188.618 571.797 211.887 577.348 232.726 587.54C225.376 621.836 224.905 652.921 221.74 687.721C220.785 692.023 221.863 700.309 227.958 698.398C283.986 742.885 290.498 834.304 364.022 860.74C393.989 872.921 381.343 882.81 391.245 905.81C385.797 904.811 380.936 900.244 378.594 895.873C377.433 893.702 374.052 895.613 375.184 897.779M205.831 870.79C204.562 862.073 205.552 853.395 205.61 844.663C204.93 828.763 205.459 813.264 206.071 797.309C223.641 815.513 241.907 833.099 259.85 850.964C240.741 853.375 218.702 855.36 205.831 870.79M205.507 883.613C205.807 883.515 206.1 883.383 206.37 883.221C206.301 890.062 206.409 896.902 206.659 903.733C206.179 897.029 205.797 890.321 205.507 883.613M184.012 1369.84C178.858 1369.44 156.814 1368.68 154.169 1372.14C157.148 1373.4 161.244 1372.71 164.448 1372.85C170.671 1373.1 176.879 1373.65 183.038 1374.52C182.577 1376.93 182.16 1379.32 181.818 1381.73C175.605 1382.32 163.507 1382.59 159.563 1386.94C166.599 1388.06 173.924 1387.05 180.984 1388.45C180.641 1391.74 180.392 1395.04 180.206 1398.34C177.393 1398.64 160.852 1401.38 160.867 1403.98C167.06 1404.8 173.62 1403.72 179.932 1404.33C178.564 1424.09 183.2 1483.77 156.192 1487.42C132.58 1486.18 122.222 1447.91 119.014 1429.55C111.899 1386.77 113.119 1341.16 127.221 1299.93C132.257 1288.46 145.967 1286.47 157.56 1285.88C158 1287.82 158.436 1289.73 158.926 1291.65C153.899 1303.04 152.297 1315.88 152.16 1328.21C153.223 1345.94 175.095 1359.12 190.98 1347.41C188.011 1354.66 185.718 1362.21 184.012 1369.84M152.768 1497.37C106 1487.32 98.3266 1433.15 101.541 1393.33C104.162 1365.6 101.012 1307.15 126.603 1290.86C93.5298 1321.06 96.4015 1526.61 169.696 1490.73C167.868 1496.52 158.47 1498.2 152.768 1497.37M161.93 1304.12C162.013 1303.4 162.106 1302.69 162.204 1301.98C167.393 1316.07 176.281 1329.47 189.515 1337.63C184.449 1343.95 174.581 1345.84 167.922 1340.66C156.31 1331.95 161.151 1316.2 161.93 1304.12M321.346 403.526C321.253 403.688 321.155 403.849 321.057 404.006C320.41 404.05 319.759 404.109 319.097 404.182C319.847 403.957 320.597 403.746 321.346 403.526M410.222 408.7C410.197 408.627 410.173 408.553 410.153 408.485C410.212 408.519 410.271 408.558 410.334 408.597C410.286 408.627 410.256 408.661 410.222 408.7M600.948 1554.53C600.82 1551.02 600.771 1546.49 596.665 1545.25C598.527 1530.13 585.984 1521.53 572.814 1517.35C561.584 1510.47 548.849 1505.68 538.53 1497.39C543.322 1496.49 548.114 1495.41 552.372 1493.32C555.586 1491.75 554.038 1486.51 550.554 1487C544.385 1487.81 538.844 1490.95 533.047 1493.13C529.755 1490.42 526.565 1487.6 523.552 1484.61C527.305 1483.88 532.077 1484.15 534.263 1480.42C534.944 1479.26 534.64 1478.05 533.817 1477.15C530.015 1473.3 522.479 1477.14 517.755 1478.27C515.487 1475.65 513.297 1472.98 511.146 1470.28C514.713 1469.96 523.993 1470.61 522.175 1464.72C518.692 1460.11 511.2 1462.88 506.163 1463.83C499.773 1455.97 497.716 1443.91 487.73 1439.59C487.372 1437.69 484.884 1437.83 483.223 1438.4C480.778 1426.72 480.964 1420.79 481.679 1408.82C489.092 1406.77 496.447 1404.08 502.61 1399.66C505.443 1400.49 508.877 1399.53 509.465 1396.2C511.228 1384.48 512.213 1370.95 513.449 1358.97H513.899C516.246 1337.13 518.137 1315.22 520.794 1293.43C535.997 1167.5 539.309 1013.79 511.165 889.371C510.945 884.657 511.278 879.938 511.753 875.259C515.109 874.362 517.109 871.084 519.887 869.188C525.051 864.978 530.304 862.622 530.779 855.276C531.822 854.282 531.945 852.777 531.372 851.474C532.71 843.933 530.739 836.446 526.727 829.929C522.327 822.505 518.172 815.013 514.502 807.222C522.528 728.695 511.641 652.588 517.594 573.669C525.227 569.626 520.435 547.164 519.725 539.677C515.266 490.506 492.311 436.214 443.505 415.761C440.08 412.87 435.298 411.89 431.114 410.298C428.287 408.906 423.686 407.701 421.751 410.94C419.698 409.984 413.088 409.254 410.824 407.598C410.403 407.289 410.133 406.951 410.07 406.574C409.903 406.579 409.707 406.544 409.496 406.5C407.41 403.55 405.42 383.005 402.848 384.47C400.04 391.526 401.985 399.498 404.671 406.623C406.522 412.924 409.061 429.133 418.899 424.988C420.595 424.145 419.546 421.955 418.027 421.778C413.363 420.446 412.324 413.59 410.521 409.572C412.657 411.346 422.388 414.007 423.451 414.57C444.559 463.022 316.936 460.479 306.902 427.075C299.748 415.536 305.922 409.283 318.676 407.431C309.303 417.849 321.17 420.161 325.682 409.945C329.999 402.629 331.964 393.741 330.489 385.322C331.248 382.368 331.891 378.418 327.471 379.212C327.319 378.82 327.079 379.129 327.172 379.408C325.56 381.976 326.682 385.665 326.109 388.63C325.624 393.481 324.247 398.234 321.91 402.526C317.574 403.354 313.257 404.241 308.96 405.211C306.382 399.973 289.665 410.42 285.177 411.65C225.552 429.266 180.21 476.178 164.385 535.351C160.852 543.23 157.04 551.148 154.149 559.272C152.855 562.791 152.855 567.156 156.408 569.435C139.097 648.849 134.873 731.591 200.27 791.155C201.754 797.603 200.765 804.444 200.721 811.01C201.269 825.965 188.491 877.219 203.332 883.848C198.996 950.243 215.258 1040.58 231.021 1104.64C232.186 1126.65 225.548 1146.68 207.678 1160.57C173.704 1185.97 159.392 1228.37 155.418 1268.78C154.854 1272.92 155.408 1277.13 156.339 1281.2C148.975 1282.57 142.081 1283.46 134.932 1286.16C95.5044 1278.61 98.3173 1363.32 95.2991 1388.46C92.9369 1425.62 94.4117 1470.17 128.558 1494.5C140.038 1502.67 160.303 1510.52 171.489 1498.15C174.654 1494.36 176.379 1489.93 175.134 1485.09C191.171 1461.6 187.383 1431.59 188.584 1404.86C192.783 1405.01 197.359 1406.88 201.495 1405.85C204.68 1405.01 205.087 1400.92 202.392 1399.29C198.501 1397.09 193.214 1397.93 188.863 1397.78C188.996 1395.22 189.187 1392.66 189.432 1390.11C193.562 1391.12 199.481 1393.54 200.711 1387.77C201.206 1382.51 194.566 1382.11 190.432 1381.88C190.721 1379.9 191.044 1377.93 191.412 1375.96C194.577 1376.27 197.918 1378.29 201.03 1377.33C202.793 1376.63 203.405 1374.85 202.117 1373.4C199.721 1371.06 195.625 1371.53 192.455 1370.8C194.38 1361.36 197.86 1352.34 201.211 1343.32C207.277 1345.43 213.847 1346.82 220.32 1346.29C223.676 1345.59 227.341 1345.38 230.732 1345.84C234.504 1344.84 235.376 1340.81 235.871 1337.51C235.798 1337.4 235.724 1337.28 235.641 1337.18C244.357 1286.42 275.627 1242.56 310.689 1204.78C320.347 1193.97 329.818 1182.73 336.378 1169.89C349.706 1143.06 352.097 1112.87 362.293 1084.99C370.882 1059.68 382.362 1035.41 393.617 1011.1C398.129 1043.11 406.557 1074.61 407.522 1107.07C408.992 1148.15 399.942 1188.63 396.081 1229.38C390.503 1272.47 393.474 1315.78 393.121 1358.97H393.361C393.269 1369.39 392.986 1380.26 392.338 1390.64C392.363 1394.44 392.853 1398.02 392.313 1401.81C392.015 1403.91 393.524 1405.23 395.111 1405.28C400.942 1409.1 408.267 1410.46 414.969 1412.1C416.826 1413.52 416.023 1417.02 416.352 1419.16C417.071 1431.19 418.022 1440.27 416.851 1452.39C410.295 1462.09 405.572 1460.54 403.749 1475.28C402.745 1490.66 400.535 1507.29 407.257 1521.26C404.249 1521.94 403.107 1531.12 403.558 1533.55C404.322 1540.4 410.364 1542.57 416.204 1544.94C458.885 1560.93 549.574 1587.26 593.432 1569.15C596.572 1570.93 600.075 1567.45 601.09 1564.64C602.432 1561.23 601.197 1557.92 600.948 1554.53" fill="black"/>
<path fill-rule="evenodd" clip-rule="evenodd" d="M521.08 243.257C519.36 228.145 521.586 196.558 521.735 194.639C522.678 182.507 516.993 134.6 506.244 139.014C488.213 124.744 464.198 121.593 441.742 120.088C395.097 116.961 345.476 124.139 309.458 155.522C291.645 171.819 274.304 195.523 275.698 220.204C259.515 243.599 236.699 275.69 256.863 303.04C263.718 311.778 274.611 315.032 283.221 321.65C300.54 335.615 311.406 355.657 328.89 369.54C375.209 411.151 453.859 419.844 499.368 372.514C534.559 338.237 528.868 286.956 522.678 243.257C518.517 213.878 524.436 272.739 521.08 243.257Z" fill="white"/>
<path fill-rule="evenodd" clip-rule="evenodd" d="M379.431 56.0026C391.906 53.486 404.715 51.92 417.455 52.3914L418.437 52.4296C428.022 52.8125 440.161 53.6597 448.523 59.232C449.004 58.7494 449.777 58.5017 450.479 58.8365C460.416 63.5782 471.345 67.0065 481.807 70.4132C492.222 73.8031 503.026 76.0409 513.942 76.9429C518.049 77.2825 521.564 81.7158 518.963 85.6921C518.345 86.6397 517.742 87.5968 517.142 88.5563C518.146 88.4517 519.149 88.3438 520.153 88.2423C523.456 87.91 526.756 91.4341 526.56 94.6491C526.438 96.6712 526.22 98.6693 525.897 100.644C527.155 100.617 528.405 100.806 529.614 101.316C535.732 103.899 535.306 111.185 534.848 116.728C534.213 124.42 531.336 132.568 525.993 138.325C529.982 142.467 532.806 147.414 534.491 153.29C535.713 157.58 536.393 162.15 536.057 166.616L535.95 167.953C535.535 172.8 534.71 178.166 531.222 181.652C529.432 183.45 527.226 184.105 525.124 183.897C526.395 195.066 527.21 206.3 527.978 217.493L528.337 222.843C530.049 248.712 531.335 274.75 530.998 300.663C530.686 324.879 525.9 348.383 511.044 368.045C497.513 385.95 478.086 399.148 456.11 404.166C444.266 406.874 432.175 407.066 420.188 405.34C414.377 404.501 408.528 403.215 403.013 401.185C396.908 398.932 392.521 395.617 388.413 390.647C386.471 388.291 387.406 383.273 391.274 383.745C397.125 384.454 402.466 385.309 408.076 387.039L408.879 387.292C414.466 389.082 420.252 390.416 426.093 390.983C438.057 392.141 450.203 390.975 461.664 387.348C480.324 381.436 496.395 368.261 506.696 351.707C518.923 332.085 520.306 309.81 520.129 287.248C519.94 262.49 519.135 237.718 517.82 212.986L517.596 208.864C516.901 196.137 516.229 183.402 515.639 170.667C515.455 166.672 515.175 162.645 514.671 158.659C510.061 155.958 505.929 152.235 503.236 147.641C497.826 149.878 492.136 151.492 486.9 152.778C474.774 155.76 462.184 156.484 449.841 154.617C446.512 155.992 443.116 157.201 439.669 158.241C438.737 158.654 437.805 159.06 436.874 159.458C428.562 163.013 420.131 166.025 411.357 168.23L409.202 168.767C404.584 169.905 399.569 171.026 394.655 171.378C393.848 171.689 392.977 171.953 392.025 172.185C387.55 173.271 382.906 173.615 378.32 173.231C373.852 172.856 370.623 168.342 373.085 164.115C374.883 161.032 376.698 157.956 378.528 154.888C372.159 157.54 365.582 159.745 358.949 161.615C352.252 163.5 345.459 165.09 338.657 166.552C335.021 167.327 331.37 168.014 327.742 168.789C325.144 169.341 321.157 169.628 319.038 171.338C316.697 173.215 316.034 177.594 315.146 180.294C313.979 183.801 312.884 187.325 311.886 190.888C309.896 197.999 308.266 205.213 307.004 212.499C305.741 219.794 304.893 227.16 304.421 234.55C303.951 241.932 304.158 249.363 303.399 256.713C302.991 260.612 298.804 262.617 295.711 259.893C295.349 259.573 294.983 259.25 294.621 258.923L294.081 258.431C291.435 256.034 288.87 253.493 286.753 250.633C286.369 250.106 286.002 249.554 285.658 248.995C285.602 248.995 285.554 248.979 285.498 248.939L284.911 248.498C278.448 243.688 267.65 237.418 261.348 245.408C259.34 247.953 258.311 251.194 257.458 254.321L255.961 259.917C254.992 263.57 254.081 267.244 253.547 270.982C252.341 279.355 252.948 289.006 258.711 295.717C261.012 298.402 264.185 300.319 267.724 300.822C269.699 301.094 271.649 300.758 273.607 300.511C275.597 300.263 277.514 300.663 279.505 300.471C282.669 300.159 284.052 303.946 282.869 306.327C282.23 307.605 281.478 308.708 280.623 309.643C281.31 310.234 281.966 310.873 282.597 311.544C284.467 312.143 286.145 313.43 287.4 315.131C288.415 316.506 288.942 318 289.031 319.574C289.142 319.965 289.238 320.365 289.326 320.772L291.041 323.554C291.418 324.164 291.794 324.767 292.17 325.358C296.534 332.229 301.377 338.045 307.395 343.526C313.189 348.799 319.478 353.521 324.921 359.177L325.562 359.849C330.636 365.194 335.985 371.665 333.999 379.438C333.488 381.436 330.698 382.874 328.876 381.524C323.019 377.177 320.069 370.29 315.099 365.017C309.984 359.585 304.318 354.703 299.188 349.286C294.336 344.173 290.508 338.381 287.624 332.005C286.472 333.275 284.795 334.178 282.469 334.53C278.474 335.129 274.749 332.788 273.007 329.329C271.888 329.824 270.746 330.271 269.594 330.623C263.537 332.476 259.726 325.741 262.011 320.764C263.233 318.096 264.759 315.779 266.654 313.829C260.732 313.014 254.706 309.954 250.814 306.135C241.049 296.54 239.707 282.119 241.904 269.296C243.071 262.497 245.084 255.618 247.698 249.235C248.153 248.124 248.641 247.006 249.176 245.903C248.88 245.895 248.577 245.767 248.385 245.52C246.619 243.107 244.47 241.133 243.158 238.433C241.952 235.956 240.61 233.448 239.658 230.867C237.701 225.586 236.742 219.626 236.103 214.041C234.784 202.608 235.295 191.248 237.046 179.887C240.026 160.536 247.224 142.018 257.83 125.769C257.253 125.466 256.699 125.1 256.183 124.667L255.929 124.445L255.515 124.071C252.488 121.333 252.75 116.201 255.515 113.428L256.388 112.553C257.494 111.455 258.448 110.585 260.234 109.389C260.498 109.212 260.767 109.046 261.039 108.891C260.104 107.164 259.78 105.144 260.431 102.916C262.701 95.1532 273.873 95.428 280.954 98.8131C288.788 91.8232 297.475 85.7552 306.891 80.8417C329.316 69.1452 354.672 60.988 379.431 56.0026ZM263.514 260.452C267.701 259.086 273.263 261.954 277.027 263.68C281.798 265.869 285.858 269.104 289.79 272.524C291.748 274.234 292.099 277.03 291.612 279.419C291.563 279.658 291.516 279.906 291.459 280.154C290.94 282.702 288.095 284.708 285.578 284.636C280.311 284.492 277.803 279.946 274.821 276.095C274.47 276.718 274.031 277.294 273.486 277.725L273.119 278.013C271.882 278.954 270.518 279.707 268.883 279.634C267.725 279.579 266.615 279.283 265.591 278.748C263.033 277.397 261.907 274.09 262.602 271.397C263.033 269.704 264.024 268.377 265.319 267.459L264.836 267.129C263.804 266.41 262.862 265.653 262.128 264.535L261.963 264.271H262.027C261.227 262.897 261.748 261.027 263.514 260.452Z" fill="black"/>
<path fill-rule="evenodd" clip-rule="evenodd" d="M447.022 353.126C440.216 355.1 432.911 355.276 425.973 353.238C419.681 351.39 413.22 347.321 408.589 341.938C404.475 337.156 401.811 331.344 401.915 325.14C401.927 324.432 402.18 323.841 402.569 323.382C402.989 322.887 403.574 322.548 404.201 322.401C404.846 322.249 405.527 322.303 406.108 322.567C406.633 322.806 407.084 323.212 407.365 323.805C408.077 324.741 408.786 325.663 409.497 326.56C415.22 333.634 420.762 338.92 429.367 340.816C434.035 341.845 438.698 341.389 442.977 339.819C447.556 338.139 451.696 335.184 454.94 331.403C456.407 329.694 458.137 328.996 459.83 328.984C461.748 328.971 463.644 329.863 465.072 331.29C466.476 332.691 467.416 334.596 467.501 336.589C467.576 338.338 467.006 340.164 465.49 341.794C460.496 347.163 454.024 351.096 447.022 353.126ZM446.811 264.527C453.788 268.773 464.418 278.672 456.913 289.197C448.079 298.477 435.359 287.837 429.091 283.025C423.28 279.295 416.75 288.887 422.142 293.242C467.434 326.812 485.814 265.637 450.34 259.536C446.434 258.863 444.984 263.214 446.811 264.527ZM381.55 245.847C379.307 244.411 376.67 243.918 373.746 245.25C371.462 246.29 367.455 249.757 364.667 254.315C362.759 257.433 361.406 261.091 361.688 264.901C361.753 265.786 361.427 266.438 360.912 266.92C360.505 267.301 359.917 267.581 359.227 267.669C358.641 267.743 357.985 267.676 357.452 267.51C356.437 267.193 355.9 266.534 355.698 265.996C353.745 260.805 354.586 255.013 356.774 249.787C359.727 242.734 365.09 236.827 368.603 234.922C374.616 231.662 381.708 231.512 387.729 234.833C392.855 237.66 396.059 242.224 399.247 246.876C399.924 247.865 400.597 248.847 401.292 249.812C402.684 251.744 402.823 253.661 402.284 255.304C401.686 257.125 400.162 258.662 398.257 259.466C396.496 260.209 394.452 260.314 392.644 259.55C391.116 258.905 389.714 257.647 388.826 255.514C387.332 251.92 384.843 247.955 381.55 245.847V245.847ZM495.432 253.842C493.896 254.643 492.695 254.885 490.991 254.374C490.049 254.09 489.118 253.547 488.389 252.818C487.667 252.094 487.145 251.195 486.943 250.197C486.445 247.735 485.099 245.43 483.181 243.927C481.542 242.643 479.473 241.962 477.178 242.346C474.702 242.76 472.342 244.35 470.717 246.225C470.174 246.852 469.748 247.564 469.32 248.272C468.52 249.595 467.742 250.825 466.637 251.797C466.219 252.167 465.588 252.423 464.977 252.423C464.729 252.423 464.477 252.382 464.237 252.307C461.772 249.831 461.298 247.952 461.378 246.088C461.461 244.134 462.23 242.156 463.474 240.31C466.391 235.979 471.93 232.429 475.668 231.625C480.787 230.523 485.87 231.845 489.946 234.707C494.139 237.652 497.247 242.225 498.216 247.377C498.449 248.618 498.35 249.958 497.878 251.119C497.416 252.254 496.612 253.226 495.432 253.842ZM392.839 199.677C389.767 202.674 386.131 203.138 382.453 203.55C380.409 203.782 378.778 203.969 377.172 204.331C372.759 205.329 368.398 206.83 364.418 208.993C360.258 211.255 355.725 213.982 352.463 217.475C351.688 218.307 350.957 219.179 350.225 220.053C349.557 220.85 348.914 221.618 348.236 222.358C347.458 223.208 346.719 224.098 345.984 224.987C345.529 225.737 345.439 225.921 345.348 226.113C345.21 226.401 345.05 226.724 344.867 227.07C344.616 227.545 344.323 228.064 344.015 228.534C343.504 229.395 343.229 229.632 342.992 229.738C342.598 229.913 342.225 230 341.863 229.953C341.523 229.909 341.203 229.746 340.887 229.478C339.31 228.144 338.845 225.955 338.893 223.631C338.965 220.105 340.264 216.2 341.462 213.8C344.247 208.223 348.109 202.426 352.754 198.263C358.053 193.512 363.851 189.915 370.51 187.437C374.648 185.896 379.44 184.481 383.948 184.66C387.194 184.789 390.292 185.754 392.85 188.166C394.421 189.647 395.175 191.753 395.175 193.857C395.175 196.003 394.392 198.162 392.839 199.677ZM501.679 227.115C501.484 227.435 501.213 227.656 500.913 227.789C500.597 227.928 500.245 227.968 499.907 227.911C499.571 227.854 499.251 227.702 498.997 227.468C498.754 227.245 498.569 226.948 498.486 226.585C496.447 217.617 492.487 210.945 484.034 206.643C479.877 204.526 475.095 203.182 470.569 202.109C469.254 201.798 467.864 201.596 466.465 201.391C462.078 200.75 457.66 200.016 454.801 196.466C453.077 194.328 452.354 191.594 452.763 189.093C453.148 186.738 454.523 184.579 457.021 183.285C463.241 180.066 470.97 183.225 477.252 185.916C477.718 186.116 478.175 186.312 478.622 186.501C484.765 189.097 490.367 192.523 494.972 197.423C498.626 201.31 502.012 207.057 503.375 212.969C504.51 217.887 504.243 222.908 501.679 227.115Z" fill="black"/>
</svg>
