<svg width="326" height="476" viewBox="0 0 326 476" fill="none" xmlns="http://www.w3.org/2000/svg">
<path fill-rule="evenodd" clip-rule="evenodd" d="M64.8658 172.923C62.5395 174.229 60.6086 175.12 58.7894 175.73L56.114 176.626L58.6302 177.902C60.3392 178.77 61.9645 179.876 63.5985 181.284L64.8597 182.371L65.4683 180.821C66.2677 178.785 66.6567 176.469 66.6244 173.938L66.5989 171.95L64.8658 172.923ZM176.617 179.499C174.44 183.432 171.812 187.305 169.27 191.05C163.66 199.315 157.859 207.862 156.073 218.083C155.865 219.353 155.775 223.828 155.775 223.828L157.438 223.15C162.991 220.886 168.882 219.201 174.579 217.573C176.782 216.943 179.058 216.292 181.29 215.615C182.199 215.372 183.103 215.087 183.977 214.812C186.099 214.144 188.103 213.513 190.21 213.406L190.851 213.373L191.172 212.817C194.076 207.783 191.898 202.984 189.405 198.501C187.908 195.232 185.982 192.161 184.119 189.191C182.188 186.112 180.191 182.929 178.732 179.597L177.774 177.41L176.617 179.499ZM69.4691 221.199C72.7695 224.661 75.8352 228.18 78.5811 231.656L80.6662 230.697C79.6582 225.562 76.529 221.944 70.818 219.312L69.4691 221.199ZM179.88 298.557C179.55 298.557 179.24 298.685 179.008 298.918C178.772 299.154 178.643 299.473 178.644 299.814L179.88 299.81V298.557ZM42.5423 384.172C40.6033 380.84 40.3183 375.608 43.2244 372.772C42.247 366.646 44.1672 359.801 48.4198 354.924L48.4296 354.939C54.7438 345.467 55.2078 342.092 50.5944 331.504C42.3497 331.188 33.8572 331.094 25.8071 329.165L26.1082 327.362C25.8102 327.283 24.2881 326.883 23.9613 326.798C24.005 327.134 24.2318 328.664 24.2263 328.971C23.8503 329.383 22.9414 329.765 22.7723 328.954C17.7081 307.272 13.1759 286.019 8.25123 264.369C3.09714 242.517 -7.26812 207.567 18.1041 195.524L17.5802 193.285C16.1792 193.286 15.6162 191.756 14.9739 189.596C12.1111 181.866 17.6776 174.287 22.8831 169.506C29.9983 162.37 36.5624 154.448 42.9123 146.79C61.0256 124.73 85.6715 95.2924 117.176 100.293L117.07 101.593C121.998 102.214 127.143 103.519 132.133 102.61C149.17 99.6533 167.705 106.342 178.183 120.074L178.568 117.514C178.604 117.273 178.69 117.05 179.072 117.05C179.571 117.032 179.835 117.441 180.02 117.818C198.105 124.979 205.596 148.288 211.375 164.264C212.113 166.964 211.905 167.763 211.841 167.922L210.791 168.548C221.691 183.075 227.68 200.547 232.818 217.114C234.516 221.53 234.694 224.591 231.857 227.262C250.559 238.519 265.233 256.064 256.936 276.066C246.108 295.529 217.434 307.877 195.897 319.056C187.344 323.698 174.905 326.17 167.035 333.772C166.509 334.55 165.755 335.309 165.298 335.246C161.645 335.788 156.209 312.932 157.035 311.101C153.179 312.482 148.89 312.409 144.857 313.13C145.218 313.925 146.402 315.002 145.516 315.887C145.576 318.571 145.164 321.473 144.575 324.209C149.414 323.432 149.305 325.975 144.648 324.629C144.522 325.815 144.199 328.837 144.075 329.983C145.465 329.371 148.231 328.941 149.2 329.898C148.804 331.174 145.377 329.973 144.056 330.351C143.284 336.089 143.032 341.731 142.49 347.453C146.611 351.385 153.047 352.315 156.724 356.568C159.84 359.805 159.39 365.237 155.735 367.841C157.974 370.472 156.182 374.838 152.913 375.552C148.46 376.593 143.805 375.153 139.414 373.943C132.115 371.535 124.471 367.781 116.046 362.467C112.713 360.388 110.231 357.12 109.051 353.263C100.504 326.873 98.22 308.94 102.254 299.94C104.557 298.197 107.123 299.273 109.249 298.321C110.262 297.868 111.175 297.258 111.911 295.095C100.823 294.004 84.6579 296.031 75.7691 290.708L76.0817 290.041C75.261 289.516 73.4575 287.321 72.7713 286.615C74.0081 301.518 75.0022 316.808 75.4942 331.659C77.1247 334.407 78.5092 337.25 80.0292 340.423C81.0863 341.463 82.9358 343.246 81.8506 344.425C81.8504 344.425 90.9773 365.836 93.7665 376.658C96.422 376.771 97.4986 381.277 97.3975 384.27C96.9937 389.717 90.0156 390.295 83.8983 390.829C79.7126 391.269 75.4088 391.497 71.1689 391.497C63.5084 391.503 44.3545 390.975 42.5423 384.172Z" fill="white"/>
<path fill-rule="evenodd" clip-rule="evenodd" d="M151.134 310.037C148.121 310.748 145.083 311.336 142.053 311.97C141.275 312.311 137.365 312.367 138.078 313.644C138.074 313.648 138.072 313.652 138.068 313.654C138.864 314.268 139.942 313.92 140.901 314.001C133.448 317.056 128.337 310.76 129.709 303.574C129.903 302.291 130.155 300.831 130.708 299.658C131.001 299.133 133.102 295.082 133.473 296.464C133.182 296.639 134.005 296.711 133.89 296.085C159.484 295.8 153.182 284.021 155.611 309.034C154.106 309.148 152.602 309.691 151.134 310.037M144.914 320.957C144.773 321.584 144.618 322.223 144.436 322.843C139.429 323.713 135.746 326.256 143.674 325.777C143.446 326.713 143.231 327.654 143.029 328.599C142.048 328.976 138.484 330.172 138.666 331.314C139.901 331.592 141.25 331.079 142.519 331.133C141.695 336.601 140.49 342.194 140.6 347.737C140.585 349.562 143.37 349.906 143.727 348.097C147.099 353.053 157.269 354.989 156.304 362.232C155.766 363.713 155.062 364.721 153.549 364.775C152.475 365.053 151.276 366.322 151.894 367.456L151.866 367.465C151.983 368.49 153.153 368.861 153.921 369.156C154.684 369.75 154.712 370.709 154.106 371.604C151.141 374.73 142.688 371.615 139.012 370.587C131.554 367.994 124.505 364.241 117.78 360.133C114.627 358.316 112.46 355.272 111.434 351.811C106.811 335.337 100.813 317.858 103.532 300.627C104.71 298.949 107.262 299.254 108.922 298.365C106.176 308.507 110.728 319.04 112.58 329.04C116.403 347.045 119.415 361.406 139.233 367.414C141.908 367.975 147.673 370.004 149.656 367.755C150.288 367.151 150.225 366.139 149.656 365.523C148.653 364.18 146.994 364.341 145.496 364.189C141.618 363.704 137.822 362.525 134.362 360.702C126.671 356.899 121.326 349.565 119.966 341.11C117.658 331.591 115.586 321.995 112.89 312.576C111.045 306.168 108.031 300.591 114.704 295.872C119.22 296.006 123.74 296.13 128.258 296.146C127.146 298.016 125.915 300.375 126.542 302.593C123.787 308.845 127.344 317.176 134.207 318.771C138.005 319.589 141.948 318.614 145.453 317.008C145.398 318.328 145.231 319.605 144.914 320.957M74.5349 290.336C74.5154 290.08 74.4957 289.823 74.4758 289.565C74.8243 289.949 75.2236 290.293 75.6526 290.604C75.2828 290.509 74.9127 290.413 74.5349 290.336M75.198 332.554C75.5597 333.859 75.9637 335.152 76.4023 336.433C69.8849 334.549 61.1949 332.984 55.7777 338.1C55.0043 336.013 54.0818 334.036 52.7886 332.249C59.3839 331.499 66.0288 331.913 72.6223 331.242C73.1092 332.163 74.2228 332.712 75.198 332.554M55.0378 347.607C55.0614 347.54 55.087 347.473 55.1106 347.408C55.4821 347.362 55.8511 347.317 56.2204 347.268C55.8249 347.377 55.4313 347.489 55.0378 347.607M78.0004 340.979C78.2464 341.821 78.8965 342.34 79.5528 342.396C80.202 343.105 80.4592 344.177 81.326 344.663C84.6099 355.533 89.026 366.092 91.2514 377.272C76.0318 382.202 61.7665 382.484 46.4504 377.514C46.8184 377.152 46.9916 376.665 46.9995 376.126C47.0091 376.136 47.0209 376.144 47.0327 376.154C44.9614 365.978 46.1297 362.776 51.4192 354.076C58.5261 353.77 65.6543 353.506 72.768 353.719C74.4382 353.915 77.6802 352.54 76.2195 350.543C74.5055 348.662 71.8114 349.171 69.5093 349.294C64.1373 349.564 58.7774 350.355 53.6583 352.045C54.1963 350.9 54.3634 349.54 54.7959 348.327C59.7584 347.764 64.77 347.632 69.7474 348.046C71.603 348.221 73.7893 349.112 75.3948 347.818C78.2631 342.826 57.9568 345.562 55.6224 346.119C56.391 344.314 57.2108 342.44 56.86 340.414C61.9769 336.382 72.7038 337.775 78.0004 340.979M93.0559 380.81C93.4652 381.097 93.9889 381.083 94.4316 380.887C95.4563 383.367 94.7451 385.904 91.9085 386.487C86.7396 387.699 81.352 387.926 76.066 388.237C70.44 388.457 64.7942 388.294 59.1901 387.761C50.1968 387.491 42.2064 384.959 42.5736 374.4C42.9336 375.81 43.1685 377.972 44.9783 378.061C59.1019 385.523 77.4396 386.233 92.0132 379.747C92.2651 380.149 92.5974 380.489 93.0559 380.81M25.6408 328.079C25.6388 328.05 25.6388 328.024 25.6347 327.995C25.7866 328.034 25.9389 328.079 26.0932 328.117C25.9419 328.103 25.7923 328.089 25.6408 328.079M65.7074 173.559C65.7352 175.742 65.4349 177.954 64.6328 179.996C63.0371 178.621 61.3133 177.412 59.4282 176.456C61.6179 175.723 63.6942 174.689 65.7074 173.559M20.2567 193.479C20.5517 192.958 19.2389 193.594 19.0347 193.62C19.8901 192.933 19.7157 191.471 18.7239 191.08C14.0203 182.875 19.7262 175.425 25.7571 169.974C36.0498 159.789 44.4273 147.927 53.997 137.09C66.0695 139.104 77.7308 144.277 86.7373 152.611C77.5133 161.124 67.8919 170.071 56.2838 175.16C55.2046 174.636 53.7695 174.779 53.4106 175.95C52.0786 176.193 50.7505 176.532 49.4218 176.749C49.3547 176.759 49.3646 176.858 49.4218 176.873C50.7279 177.324 52.0739 177.623 53.4694 177.534C66.8942 182.213 71.9161 196.667 81.4673 206.107C89.2655 212.934 100.451 217.972 101.576 229.587C103.454 233.341 104.81 237.26 104.312 241.465C104.443 244.749 103.297 248.007 104.233 251.192C102.264 258.725 100.007 266.561 94.3667 272.241C94.2073 272.202 94.042 272.212 93.8885 272.286C94.2937 269.769 94.7286 267.256 95.1577 264.743C96.7832 261.42 97.822 257.844 98.503 254.215C98.7799 252.387 96.0952 252.02 95.9821 253.882C94.151 260.411 91.9323 268.147 85.5666 271.944C86.7247 267.558 88.1226 263.221 90.0513 259.111C90.7892 257.743 91.4858 256.352 92.1686 254.957C92.9046 253.445 90.7064 252.117 89.8899 253.625C86.9165 259.294 84.1124 265.716 78.449 269.108C80.2368 263.194 82.5921 257.4 84.8244 251.633C85.0727 251.041 84.5569 250.34 84.0002 250.181C83.3213 249.986 82.794 250.421 82.548 251.005C81.6519 253.084 80.9718 255.49 79.5254 257.291C78.9437 259.286 74.8841 262.37 76.9476 257.795C78.9538 251.909 80.3159 245.632 83.1952 240.142C83.9871 230.185 82.4837 223.957 72.8896 219.347C71.4987 218.65 69.773 217.759 68.1042 217.46C63.4403 212.817 58.46 208.504 53.1034 204.59C42.2497 196.384 25.7488 189.054 13.3044 198.21C15.3017 196.236 17.62 194.604 20.2567 193.479M67.5907 122.606C80.4844 110.021 97.281 99.988 115.786 99.9843C115.621 100.039 115.592 100.24 115.69 100.37C101.65 159.49 169.058 182.472 181.304 117.605C194.162 125.995 203.912 147.837 208.36 162.269C196.834 163.163 186.462 170.445 179.746 179.556C179.167 178.571 179.042 177.401 180.604 177.688C180.961 177.346 179.328 177.541 179.191 177.82C182.299 171.184 185.496 164.314 187.31 157.072C187.363 156.889 187.106 156.787 187.007 156.944C184.282 161.287 181.417 165.536 178.758 169.921C169.764 187.532 151.81 203.006 152.573 224.039C152.569 224.041 152.567 224.043 152.565 224.045C152.913 224.653 152.774 225.5 153.304 226.032C150.539 238.28 143.642 250.795 132.442 257.102C123.981 261.003 114.772 256.483 107.468 252.062C107.199 249.476 106.928 246.891 106.656 244.306C107.986 243.972 107.816 241.538 107.856 240.469C108.135 235.962 106.97 231.541 104.575 227.679C103.471 221.948 100.373 216.853 95.8935 213.132C92.9024 210.576 89.5788 208.453 86.5328 205.969C78.4453 199.398 74.1124 189.635 66.9629 182.202C67.8244 179.084 68.0065 175.963 67.0849 172.756C72.1949 169.457 100.041 151.285 94.8728 144.926C94.1246 143.814 92.5012 144.011 92.0742 145.292C91.5352 147.033 90.7355 148.642 89.4117 149.919C80.0497 141.424 67.592 135.789 54.8095 136.157C58.9028 131.477 63.1316 126.909 67.5907 122.606M116.896 101.045C124.884 105.016 134.516 102.269 143.037 102.617C156.141 103.136 168.855 109.583 176.977 119.89C173.798 133.937 166.217 149.912 150.794 153.136C135.507 155.884 121.997 142.78 118.349 128.763C115.902 119.769 115.851 110.26 116.896 101.045M226.895 201.395C228.068 204.564 229.178 207.754 230.256 210.956C231.341 214.218 232.62 217.456 233.509 220.778C233.139 222.367 232.257 223.636 231.374 224.971C224.776 234.9 211.357 233.972 201.603 238.792C200.068 239.52 198.212 240.428 196.868 241.707C195.059 242.381 194.544 244.533 194.832 246.28C196.419 255.126 197.712 263.88 198.096 272.851C198.22 275.327 198.299 277.913 197.525 280.276C194.709 278.01 193.077 264.943 193.001 261.083C192.966 260.113 191.746 260.05 191.407 260.867C187.264 272.207 189.42 284.666 188.906 296.494C183.039 287.955 183.023 277.185 182.704 267.211C182.635 265.615 180.195 265.597 180.208 267.211C179.856 277.708 181.373 289.123 180.228 299.342C175.854 288.563 174.626 276.463 175.759 264.917C173.67 271.007 173.744 279.359 174.439 286.196C172.387 286.424 173.759 292.28 173.138 293.957C161.57 267.374 173.513 251.792 186.227 229.348C188.884 222.842 196.195 211.179 194.102 204.552C193.356 202.222 192.029 200.134 190.783 198.05C187.244 192.175 183.582 186.375 180.185 180.418C180.787 179.941 181.375 179.449 181.956 178.947C189.73 172.007 196.822 166.596 207.776 165.814C216.294 176.436 222.231 188.66 226.895 201.395M180.183 299.448C180.11 299.66 179.998 299.241 180.216 299.369C180.206 299.395 180.193 299.42 180.183 299.448M190.382 282.004C190.433 277.651 190.379 273.253 190.976 268.941C190.742 273.294 190.579 277.651 190.382 282.004M186.246 212.619C176.569 215.57 166.67 217.92 157.256 221.663C157.748 205.398 170.538 193.255 177.914 179.678C180.822 186.318 185.597 192.033 188.615 198.641C190.932 202.803 193.045 207.27 190.413 211.833C189.036 211.784 187.501 212.298 186.246 212.619M79.6632 230.381C76.7784 226.778 73.7597 223.307 70.5876 219.991C75.3279 222.176 78.732 225.236 79.7714 230.531C79.738 230.482 79.7023 230.432 79.6632 230.381M132.245 296.126C131.892 296.389 131.75 296.519 131.493 296.718C131.742 296.532 131.96 296.218 132.245 296.126M258.346 252.944C253.826 241.42 244.263 232.916 233.92 226.585C236.517 223.558 235.434 219.673 234.189 216.31C229.003 199.623 223.159 182.753 212.772 168.506C214.954 167.203 210.41 157.168 209.755 154.752C204.186 141.194 195.835 121.658 181.09 116.458C180.318 115.109 177.951 115.038 177.664 116.946C166.577 103.962 148.881 98.2938 132.194 101.053C127.198 101.927 122.41 100.631 117.477 100.028C119.911 100.128 122.331 100.421 124.714 100.945C124.901 100.986 124.972 100.724 124.793 100.661C109.714 94.9967 92.833 99.5517 79.8303 108.203C56.5774 123.924 41.879 148.634 22.3428 168.248C16.7776 173.425 11.4568 180.794 13.8715 188.769C14.5301 190.822 15.1341 194.073 17.8441 194.073C-8.68907 207.206 2.27519 241.589 7.36396 264.237C12.2595 285.758 16.8669 307.347 21.888 328.837C22.2717 330.435 23.9918 330.529 24.9696 329.715C33.1167 331.808 41.6887 331.954 50.0614 332.263C54.3398 342.459 53.5708 344.832 47.702 353.904C47.7925 353.889 47.8987 353.877 48.0286 353.873C47.8907 353.881 47.7356 353.924 47.6213 354.017C47.6455 353.983 47.665 353.964 47.702 353.904C47.2848 353.977 47.2868 354.143 47.3891 354.176C47.4597 354.115 47.5327 354.06 47.6112 354.013C47.6073 354.024 47.6073 354.03 47.6193 354.019C47.5581 354.166 47.454 354.198 47.3891 354.176C43.4257 359.116 41.3882 365.693 42.245 371.999C39.3433 375.259 39.6707 380.711 41.7686 384.344C44.3707 389.406 50.1462 390.772 55.3707 391.23C61.7834 392.072 68.2577 392.415 74.724 392.24C77.9195 392.153 81.1093 391.945 84.2895 391.61C89.7329 391.02 98.0174 390.975 98.8374 383.986C99.0184 381.385 97.9145 375.944 94.9924 375.274C92.2452 364.731 88.8828 354.011 82.6855 344.929C84.5439 343.336 82.6533 340.596 81.2591 339.314C79.9261 336.535 78.5827 333.759 77.0261 331.096C77.4569 329.494 76.385 328.5 76.5975 326.912C76.6473 314.838 75.4054 302.806 74.5683 290.767C83.0937 296.752 99.9531 294.928 110.416 295.748C108.794 299.385 104.308 295.79 101.525 298.877C95.4982 311.889 103.82 339.734 108.186 353.215C109.433 357.291 112.056 360.811 115.68 363.073C123.097 367.751 130.989 371.93 139.335 374.68C143.859 375.935 148.768 377.421 153.456 376.306C157.093 375.422 159.471 371.044 157.504 367.682C161.165 364.387 161.086 358.91 157.887 355.41C154.228 351.104 148.108 350.154 143.985 346.566C144.463 341.393 144.712 336.239 145.366 331.088C146.884 331.013 148.4 331.662 149.824 330.959C152.542 328.337 147.901 327.248 145.705 327.93C145.785 327.178 145.864 326.428 145.945 325.676C150.757 326.751 150.917 322.09 146.301 322.5C146.734 320.303 146.969 318.067 146.962 315.849C147.427 315.15 147.397 314.298 147.015 313.643C150.022 313.185 153.231 313.165 156.144 312.288C156.207 316.077 161.946 343.267 168.158 334.19C171.487 330.664 176.028 328.568 180.474 326.761C185.911 324.517 191.317 322.201 196.655 319.733C212.532 312.386 227.89 303.829 242.067 293.552C256.371 284.343 265.546 269.942 258.346 252.944" fill="black"/>
<path fill-rule="evenodd" clip-rule="evenodd" d="M190.851 72.4194C190.339 67.9249 191.002 58.5304 191.046 57.9597C191.327 54.3514 189.634 40.1031 186.433 41.416C181.064 37.1719 173.913 36.2347 167.226 35.787C153.337 34.857 138.561 36.992 127.835 46.3256C122.531 51.1728 117.368 58.2227 117.783 65.5632C112.964 72.5211 106.17 82.0656 112.174 90.1999C114.215 92.7988 117.459 93.7666 120.023 95.7348C125.18 99.8884 128.416 105.849 133.622 109.978C147.414 122.354 170.835 124.939 184.386 110.863C194.865 100.668 193.17 85.4162 191.327 72.4194C190.088 63.6816 191.851 81.1878 190.851 72.4194Z" fill="white"/>
<path fill-rule="evenodd" clip-rule="evenodd" d="M148.672 16.727C152.387 15.9785 156.201 15.5128 159.995 15.653L160.287 15.6643C163.142 15.7782 166.756 16.0302 169.246 17.6875C169.389 17.5439 169.62 17.4703 169.829 17.5698C172.788 18.9801 176.042 19.9997 179.158 21.0129C182.259 22.0211 185.476 22.6867 188.726 22.955C189.949 23.056 190.996 24.3745 190.222 25.5571C190.037 25.839 189.858 26.1236 189.679 26.409C189.978 26.3779 190.277 26.3458 190.576 26.3156C191.559 26.2168 192.542 27.2649 192.484 28.2211C192.447 28.8225 192.382 29.4168 192.286 30.0039C192.661 29.9961 193.033 30.0522 193.393 30.204C195.215 30.9722 195.088 33.1391 194.952 34.7877C194.763 37.0754 193.906 39.4987 192.315 41.211C193.503 42.443 194.344 43.9143 194.845 45.6618C195.209 46.9378 195.412 48.297 195.312 49.6253L195.28 50.0229C195.156 51.4644 194.911 53.0603 193.872 54.0972C193.339 54.6319 192.682 54.8267 192.056 54.7649C192.435 58.0868 192.677 61.4278 192.906 64.7568L193.013 66.3479C193.523 74.042 193.906 81.7861 193.805 89.4929C193.712 96.6951 192.287 103.686 187.863 109.534C183.834 114.859 178.05 118.784 171.505 120.276C167.979 121.082 164.378 121.139 160.809 120.626C159.078 120.376 157.337 119.994 155.695 119.39C153.877 118.72 152.57 117.734 151.347 116.256C150.769 115.555 151.047 114.063 152.199 114.203C153.941 114.414 155.532 114.668 157.202 115.183L157.441 115.258C159.105 115.79 160.828 116.187 162.567 116.356C166.13 116.7 169.747 116.353 173.159 115.274C178.716 113.516 183.501 109.598 186.569 104.674C190.21 98.8384 190.621 92.2136 190.569 85.5033C190.512 78.1398 190.273 70.7722 189.881 63.4164L189.814 62.1905C189.607 58.4053 189.407 54.6176 189.232 50.83C189.177 49.6419 189.094 48.4443 188.943 47.2586C187.571 46.4554 186.34 45.3481 185.538 43.9818C183.927 44.6472 182.233 45.1271 180.674 45.5097C177.063 46.3965 173.314 46.6118 169.639 46.0565C168.647 46.4654 167.636 46.8249 166.61 47.1343C166.332 47.2572 166.055 47.3779 165.778 47.4962C163.302 48.5536 160.792 49.4494 158.179 50.1052L157.537 50.2651C156.162 50.6035 154.669 50.9368 153.206 51.0415C152.965 51.1341 152.706 51.2125 152.422 51.2815C151.09 51.6046 149.707 51.7068 148.342 51.5927C147.011 51.4811 146.05 50.1385 146.783 48.8815C147.318 47.9643 147.859 47.0495 148.403 46.137C146.507 46.9259 144.548 47.5817 142.573 48.1378C140.579 48.6985 138.556 49.1714 136.531 49.6063C135.448 49.8367 134.361 50.0411 133.281 50.2716C132.507 50.4355 131.32 50.5211 130.689 51.0296C129.992 51.588 129.794 52.8901 129.53 53.6933C129.183 54.7364 128.857 55.7843 128.559 56.8441C127.967 58.9589 127.481 61.1046 127.105 63.2717C126.729 65.4411 126.477 67.632 126.336 69.8299C126.196 72.0255 126.258 74.2354 126.032 76.4215C125.91 77.5811 124.664 78.1775 123.743 77.3672C123.635 77.2722 123.526 77.1761 123.418 77.0789L123.257 76.9324C122.469 76.2195 121.706 75.4639 121.075 74.6132C120.961 74.4564 120.852 74.2924 120.749 74.1261C120.733 74.1261 120.718 74.1213 120.702 74.1095L120.527 73.9781C118.602 72.5477 115.387 70.6828 113.51 73.0592C112.912 73.8162 112.606 74.7802 112.352 75.7101L111.906 77.3745C111.618 78.461 111.346 79.5536 111.187 80.6653C110.828 83.1556 111.009 86.026 112.725 88.022C113.41 88.8204 114.355 89.3907 115.409 89.5404C115.997 89.6212 116.578 89.5214 117.161 89.4477C117.753 89.3741 118.324 89.4929 118.917 89.4358C119.859 89.3432 120.271 90.4695 119.919 91.1776C119.728 91.5578 119.504 91.8857 119.25 92.1637C119.454 92.3395 119.65 92.5296 119.838 92.7292C120.395 92.9074 120.894 93.29 121.268 93.7961C121.57 94.2048 121.727 94.6492 121.753 95.1173C121.786 95.2337 121.815 95.3525 121.841 95.4737L122.352 96.3011C122.464 96.4825 122.576 96.6618 122.688 96.8376C123.988 98.8812 125.43 100.611 127.222 102.241C128.947 103.809 130.82 105.214 132.441 106.896L132.631 107.096C134.143 108.686 135.735 110.61 135.144 112.922C134.992 113.516 134.161 113.944 133.618 113.542C131.874 112.25 130.996 110.201 129.516 108.633C127.993 107.017 126.306 105.565 124.778 103.954C123.333 102.434 122.193 100.711 121.335 98.8146C120.992 99.1924 120.492 99.461 119.8 99.5655C118.61 99.7437 117.501 99.0475 116.982 98.0186C116.649 98.1659 116.309 98.299 115.966 98.4036C114.162 98.9548 113.027 96.9517 113.708 95.4713C114.072 94.6777 114.526 93.9886 115.09 93.4088C113.327 93.1664 111.532 92.2564 110.374 91.1206C107.466 88.2668 107.066 83.9777 107.72 80.164C108.068 78.1418 108.667 76.0959 109.446 74.1974C109.581 73.8671 109.727 73.5344 109.886 73.2065C109.798 73.2041 109.707 73.1661 109.65 73.0924C109.124 72.3748 108.484 71.7879 108.094 70.9848C107.734 70.2482 107.335 69.502 107.052 68.7345C106.469 67.1639 106.183 65.3912 105.993 63.7303C105.6 60.33 105.752 56.951 106.274 53.5721C107.161 47.817 109.305 42.3095 112.463 37.4768C112.291 37.3866 112.126 37.2777 111.972 37.1489L111.897 37.0828L111.773 36.9716C110.872 36.1573 110.95 34.6311 111.773 33.8063L112.033 33.546C112.363 33.2194 112.647 32.9606 113.178 32.6049C113.257 32.5524 113.337 32.503 113.418 32.4569C113.14 31.9431 113.043 31.3424 113.237 30.6797C113.913 28.371 117.24 28.4528 119.349 29.4595C121.681 27.3806 124.268 25.5759 127.072 24.1146C133.749 20.6358 141.3 18.2097 148.672 16.727ZM114.155 77.5335C115.402 77.1272 117.058 77.9803 118.179 78.4935C119.6 79.1446 120.809 80.1069 121.98 81.1239C122.563 81.6325 122.667 82.4641 122.522 83.1746C122.508 83.2459 122.494 83.3195 122.477 83.3932C122.322 84.1512 121.475 84.7476 120.725 84.7262C119.157 84.6835 118.41 83.3314 117.522 82.1861C117.418 82.3714 117.287 82.5425 117.125 82.6708L117.015 82.7564C116.647 83.0365 116.241 83.2604 115.754 83.2388C115.409 83.2221 115.078 83.1342 114.774 82.975C114.012 82.5734 113.677 81.5897 113.884 80.7889C114.012 80.2852 114.307 79.8907 114.693 79.6174L114.549 79.5193C114.242 79.3056 113.961 79.0804 113.743 78.748L113.693 78.6694H113.712C113.474 78.2606 113.629 77.7046 114.155 77.5335Z" fill="black"/>
<path fill-rule="evenodd" clip-rule="evenodd" d="M174.306 108.081C172.27 108.671 170.085 108.723 168.009 108.114C166.127 107.561 164.194 106.345 162.809 104.736C161.578 103.307 160.781 101.569 160.813 99.715C160.816 99.5032 160.892 99.3264 161.008 99.1892C161.134 99.0415 161.309 98.94 161.496 98.896C161.689 98.8507 161.893 98.8668 162.067 98.9457C162.224 99.0171 162.359 99.1385 162.443 99.3158C162.656 99.5956 162.868 99.8712 163.081 100.139C164.793 102.254 166.45 103.834 169.025 104.401C170.421 104.708 171.816 104.572 173.096 104.103C174.466 103.6 175.704 102.717 176.675 101.587C177.113 101.076 177.631 100.868 178.138 100.864C178.711 100.86 179.278 101.127 179.706 101.553C180.126 101.972 180.407 102.542 180.432 103.137C180.455 103.66 180.284 104.206 179.831 104.693C178.337 106.298 176.401 107.474 174.306 108.081ZM174.243 81.5963C176.33 82.8653 179.51 85.8245 177.265 88.9706C174.622 91.7447 170.817 88.564 168.942 87.1256C167.204 86.0107 165.25 88.878 166.863 90.1797C180.412 100.215 185.91 81.9281 175.299 80.1042C174.13 79.9032 173.696 81.2037 174.243 81.5963ZM154.72 76.0122C154.05 75.5831 153.261 75.4358 152.386 75.8338C151.703 76.1446 150.504 77.181 149.67 78.5434C149.099 79.4755 148.695 80.569 148.779 81.7079C148.799 81.9724 148.701 82.1674 148.547 82.3116C148.425 82.4255 148.249 82.5092 148.043 82.5354C147.867 82.5576 147.671 82.5376 147.512 82.4877C147.208 82.393 147.048 82.196 146.987 82.0352C146.403 80.4836 146.655 78.7521 147.309 77.19C148.192 75.0818 149.797 73.3159 150.848 72.7466C152.646 71.7719 154.768 71.7271 156.569 72.72C158.102 73.565 159.061 74.9293 160.014 76.32C160.217 76.6156 160.418 76.9091 160.626 77.1974C161.043 77.7751 161.084 78.348 160.923 78.8393C160.744 79.3836 160.288 79.8429 159.718 80.0833C159.192 80.3055 158.58 80.3368 158.039 80.1085C157.582 79.9156 157.163 79.5397 156.897 78.9018C156.45 77.8276 155.706 76.6424 154.72 76.0122V76.0122ZM188.788 78.4022C188.328 78.6416 187.969 78.7138 187.459 78.5611C187.177 78.4764 186.899 78.3141 186.681 78.096C186.465 77.8798 186.309 77.6109 186.248 77.3127C186.099 76.5766 185.697 75.8876 185.123 75.4384C184.632 75.0545 184.014 74.851 183.327 74.9658C182.586 75.0895 181.88 75.5648 181.394 76.1252C181.232 76.3127 181.105 76.5256 180.977 76.7371C180.737 77.1327 180.504 77.5004 180.174 77.7909C180.049 77.9014 179.86 77.9779 179.677 77.9779C179.603 77.9779 179.528 77.9658 179.456 77.9435C178.718 77.2031 178.577 76.6415 178.6 76.0845C178.625 75.5003 178.856 74.9089 179.228 74.3571C180.1 73.0626 181.757 72.0013 182.875 71.7609C184.407 71.4317 185.927 71.8268 187.146 72.6824C188.401 73.5627 189.331 74.9295 189.62 76.4698C189.69 76.8408 189.66 77.2412 189.519 77.5883C189.381 77.9276 189.141 78.2182 188.788 78.4022ZM158.097 62.2111C157.179 63.1067 156.091 63.2455 154.991 63.3689C154.379 63.4381 153.891 63.4939 153.411 63.6023C152.091 63.9004 150.786 64.3493 149.596 64.9959C148.351 65.6718 146.995 66.487 146.019 67.5313C145.788 67.7798 145.569 68.0405 145.35 68.3019C145.15 68.5402 144.958 68.7696 144.755 68.9908C144.522 69.2448 144.301 69.5111 144.081 69.7767C143.945 70.0008 143.918 70.0559 143.891 70.1133C143.85 70.1995 143.802 70.296 143.747 70.3995C143.672 70.5413 143.584 70.6965 143.492 70.8372C143.339 71.0943 143.257 71.1652 143.186 71.1969C143.068 71.2493 142.957 71.2752 142.848 71.2612C142.747 71.248 142.651 71.1992 142.557 71.1193C142.085 70.7206 141.946 70.0662 141.96 69.3715C141.982 68.3173 142.37 67.1502 142.729 66.4327C143.562 64.7657 144.717 63.0326 146.106 61.7884C147.692 60.3681 149.426 59.2929 151.418 58.552C152.656 58.0914 154.089 57.6687 155.438 57.7221C156.409 57.7605 157.336 58.0492 158.101 58.7701C158.571 59.2127 158.796 59.8422 158.796 60.4713C158.796 61.1128 158.562 61.7582 158.097 62.2111ZM190.656 70.4128C190.598 70.5086 190.517 70.5747 190.427 70.6143C190.333 70.6559 190.227 70.6679 190.126 70.6508C190.026 70.6339 189.93 70.5882 189.854 70.5185C189.781 70.4516 189.726 70.363 189.701 70.2544C189.091 67.5738 187.907 65.5794 185.378 64.2932C184.134 63.6606 182.704 63.2586 181.35 62.9381C180.957 62.8449 180.541 62.7846 180.122 62.7234C178.81 62.5318 177.488 62.3123 176.633 61.2512C176.118 60.6121 175.901 59.7947 176.024 59.0471C176.139 58.3433 176.55 57.6979 177.297 57.3111C179.158 56.3487 181.47 57.2931 183.349 58.0976C183.488 58.1572 183.625 58.2158 183.759 58.2723C185.597 59.0483 187.273 60.0724 188.65 61.5372C189.743 62.6992 190.756 64.417 191.164 66.1841C191.503 67.6544 191.423 69.1552 190.656 70.4128Z" fill="black"/>
</svg>
